G04 #@! TF.FileFunction,Legend,Top*
%FSLAX46Y46*%
G04 Gerber Fmt 4.6, Leading zero omitted, Abs format (unit mm)*
G04 Created by KiCad (PCBNEW 4.0.6) date 09/03/17 13:59:48*
%MOMM*%
%LPD*%
G01*
G04 APERTURE LIST*
%ADD10C,0.100000*%
%ADD11C,0.160000*%
%ADD12C,0.120000*%
%ADD13C,0.150000*%
%ADD14C,0.200000*%
G04 APERTURE END LIST*
D10*
D11*
X51854000Y-39546000D02*
X50254000Y-39546000D01*
X51854000Y-41226000D02*
X50254000Y-41226000D01*
D12*
X86465000Y-35758000D02*
X86465000Y-36688000D01*
X86465000Y-38918000D02*
X86465000Y-37988000D01*
X86465000Y-38918000D02*
X89625000Y-38918000D01*
X86465000Y-35758000D02*
X87925000Y-35758000D01*
X74112000Y-46861000D02*
X75042000Y-46861000D01*
X77272000Y-46861000D02*
X76342000Y-46861000D01*
X77272000Y-46861000D02*
X77272000Y-43701000D01*
X74112000Y-46861000D02*
X74112000Y-45401000D01*
X84985000Y-33330000D02*
X84985000Y-32400000D01*
X84985000Y-30170000D02*
X84985000Y-31100000D01*
X84985000Y-30170000D02*
X81825000Y-30170000D01*
X84985000Y-33330000D02*
X83525000Y-33330000D01*
D11*
X80977000Y-52600000D02*
X80977000Y-51000000D01*
X79297000Y-52600000D02*
X79297000Y-51000000D01*
X33323000Y-49746000D02*
X33323000Y-51346000D01*
X35003000Y-49746000D02*
X35003000Y-51346000D01*
X82120000Y-39932000D02*
X82120000Y-38332000D01*
X80440000Y-39932000D02*
X80440000Y-38332000D01*
X75135000Y-41186000D02*
X75135000Y-39586000D01*
X73455000Y-41186000D02*
X73455000Y-39586000D01*
X75857000Y-30021000D02*
X74257000Y-30021000D01*
X75857000Y-31701000D02*
X74257000Y-31701000D01*
D13*
X84836000Y-53213000D02*
X84836000Y-52451000D01*
X84836000Y-52451000D02*
X86360000Y-52451000D01*
X86360000Y-52451000D02*
X86360000Y-53213000D01*
X83312000Y-42037000D02*
X87884000Y-42037000D01*
X87884000Y-42037000D02*
X87884000Y-53213000D01*
X87884000Y-53213000D02*
X83312000Y-53213000D01*
X83312000Y-53213000D02*
X83312000Y-42037000D01*
X39116000Y-53975000D02*
X39116000Y-53213000D01*
X39116000Y-53213000D02*
X40640000Y-53213000D01*
X40640000Y-53213000D02*
X40640000Y-53975000D01*
X37592000Y-42799000D02*
X42164000Y-42799000D01*
X42164000Y-42799000D02*
X42164000Y-53975000D01*
X42164000Y-53975000D02*
X37592000Y-53975000D01*
X37592000Y-53975000D02*
X37592000Y-42799000D01*
X51504000Y-28140000D02*
X50504000Y-27140000D01*
X50504000Y-27140000D02*
X43104000Y-27140000D01*
X43104000Y-27140000D02*
X43104000Y-37630000D01*
X43104000Y-37630000D02*
X51504000Y-37630000D01*
X51504000Y-37630000D02*
X51504000Y-28140000D01*
D11*
X39281000Y-32815000D02*
X37681000Y-32815000D01*
X39281000Y-34495000D02*
X37681000Y-34495000D01*
X84798000Y-55196000D02*
X86398000Y-55196000D01*
X84798000Y-53516000D02*
X86398000Y-53516000D01*
X39221000Y-55577000D02*
X40821000Y-55577000D01*
X39221000Y-53897000D02*
X40821000Y-53897000D01*
X55521000Y-27100000D02*
X53921000Y-27100000D01*
X55521000Y-28780000D02*
X53921000Y-28780000D01*
D14*
X47806001Y-40928857D02*
X47406001Y-40357429D01*
X47120286Y-40928857D02*
X47120286Y-39728857D01*
X47577429Y-39728857D01*
X47691715Y-39786000D01*
X47748858Y-39843143D01*
X47806001Y-39957429D01*
X47806001Y-40128857D01*
X47748858Y-40243143D01*
X47691715Y-40300286D01*
X47577429Y-40357429D01*
X47120286Y-40357429D01*
X48206001Y-39728857D02*
X48948858Y-39728857D01*
X48548858Y-40186000D01*
X48720286Y-40186000D01*
X48834572Y-40243143D01*
X48891715Y-40300286D01*
X48948858Y-40414571D01*
X48948858Y-40700286D01*
X48891715Y-40814571D01*
X48834572Y-40871714D01*
X48720286Y-40928857D01*
X48377429Y-40928857D01*
X48263143Y-40871714D01*
X48206001Y-40814571D01*
D13*
X87129762Y-40385619D02*
X87034524Y-40338000D01*
X86939286Y-40242762D01*
X86796429Y-40099905D01*
X86701190Y-40052286D01*
X86605952Y-40052286D01*
X86653571Y-40290381D02*
X86558333Y-40242762D01*
X86463095Y-40147524D01*
X86415476Y-39957048D01*
X86415476Y-39623714D01*
X86463095Y-39433238D01*
X86558333Y-39338000D01*
X86653571Y-39290381D01*
X86844048Y-39290381D01*
X86939286Y-39338000D01*
X87034524Y-39433238D01*
X87082143Y-39623714D01*
X87082143Y-39957048D01*
X87034524Y-40147524D01*
X86939286Y-40242762D01*
X86844048Y-40290381D01*
X86653571Y-40290381D01*
X87463095Y-39385619D02*
X87510714Y-39338000D01*
X87605952Y-39290381D01*
X87844048Y-39290381D01*
X87939286Y-39338000D01*
X87986905Y-39385619D01*
X88034524Y-39480857D01*
X88034524Y-39576095D01*
X87986905Y-39718952D01*
X87415476Y-40290381D01*
X88034524Y-40290381D01*
X78739619Y-46196238D02*
X78692000Y-46291476D01*
X78596762Y-46386714D01*
X78453905Y-46529571D01*
X78406286Y-46624810D01*
X78406286Y-46720048D01*
X78644381Y-46672429D02*
X78596762Y-46767667D01*
X78501524Y-46862905D01*
X78311048Y-46910524D01*
X77977714Y-46910524D01*
X77787238Y-46862905D01*
X77692000Y-46767667D01*
X77644381Y-46672429D01*
X77644381Y-46481952D01*
X77692000Y-46386714D01*
X77787238Y-46291476D01*
X77977714Y-46243857D01*
X78311048Y-46243857D01*
X78501524Y-46291476D01*
X78596762Y-46386714D01*
X78644381Y-46481952D01*
X78644381Y-46672429D01*
X77644381Y-45910524D02*
X77644381Y-45291476D01*
X78025333Y-45624810D01*
X78025333Y-45481952D01*
X78072952Y-45386714D01*
X78120571Y-45339095D01*
X78215810Y-45291476D01*
X78453905Y-45291476D01*
X78549143Y-45339095D01*
X78596762Y-45386714D01*
X78644381Y-45481952D01*
X78644381Y-45767667D01*
X78596762Y-45862905D01*
X78549143Y-45910524D01*
X84129762Y-29797619D02*
X84034524Y-29750000D01*
X83939286Y-29654762D01*
X83796429Y-29511905D01*
X83701190Y-29464286D01*
X83605952Y-29464286D01*
X83653571Y-29702381D02*
X83558333Y-29654762D01*
X83463095Y-29559524D01*
X83415476Y-29369048D01*
X83415476Y-29035714D01*
X83463095Y-28845238D01*
X83558333Y-28750000D01*
X83653571Y-28702381D01*
X83844048Y-28702381D01*
X83939286Y-28750000D01*
X84034524Y-28845238D01*
X84082143Y-29035714D01*
X84082143Y-29369048D01*
X84034524Y-29559524D01*
X83939286Y-29654762D01*
X83844048Y-29702381D01*
X83653571Y-29702381D01*
X84939286Y-29035714D02*
X84939286Y-29702381D01*
X84701190Y-28654762D02*
X84463095Y-29369048D01*
X85082143Y-29369048D01*
D14*
X80679857Y-48951999D02*
X80108429Y-49351999D01*
X80679857Y-49637714D02*
X79479857Y-49637714D01*
X79479857Y-49180571D01*
X79537000Y-49066285D01*
X79594143Y-49009142D01*
X79708429Y-48951999D01*
X79879857Y-48951999D01*
X79994143Y-49009142D01*
X80051286Y-49066285D01*
X80108429Y-49180571D01*
X80108429Y-49637714D01*
X80679857Y-47809142D02*
X80679857Y-48494857D01*
X80679857Y-48151999D02*
X79479857Y-48151999D01*
X79651286Y-48266285D01*
X79765571Y-48380571D01*
X79822714Y-48494857D01*
X34705857Y-53793999D02*
X34134429Y-54193999D01*
X34705857Y-54479714D02*
X33505857Y-54479714D01*
X33505857Y-54022571D01*
X33563000Y-53908285D01*
X33620143Y-53851142D01*
X33734429Y-53793999D01*
X33905857Y-53793999D01*
X34020143Y-53851142D01*
X34077286Y-53908285D01*
X34134429Y-54022571D01*
X34134429Y-54479714D01*
X33620143Y-53336857D02*
X33563000Y-53279714D01*
X33505857Y-53165428D01*
X33505857Y-52879714D01*
X33563000Y-52765428D01*
X33620143Y-52708285D01*
X33734429Y-52651142D01*
X33848714Y-52651142D01*
X34020143Y-52708285D01*
X34705857Y-53393999D01*
X34705857Y-52651142D01*
X81822857Y-36283999D02*
X81251429Y-36683999D01*
X81822857Y-36969714D02*
X80622857Y-36969714D01*
X80622857Y-36512571D01*
X80680000Y-36398285D01*
X80737143Y-36341142D01*
X80851429Y-36283999D01*
X81022857Y-36283999D01*
X81137143Y-36341142D01*
X81194286Y-36398285D01*
X81251429Y-36512571D01*
X81251429Y-36969714D01*
X81022857Y-35255428D02*
X81822857Y-35255428D01*
X80565714Y-35541142D02*
X81422857Y-35826857D01*
X81422857Y-35083999D01*
X74837857Y-37537999D02*
X74266429Y-37937999D01*
X74837857Y-38223714D02*
X73637857Y-38223714D01*
X73637857Y-37766571D01*
X73695000Y-37652285D01*
X73752143Y-37595142D01*
X73866429Y-37537999D01*
X74037857Y-37537999D01*
X74152143Y-37595142D01*
X74209286Y-37652285D01*
X74266429Y-37766571D01*
X74266429Y-38223714D01*
X73637857Y-36452285D02*
X73637857Y-37023714D01*
X74209286Y-37080857D01*
X74152143Y-37023714D01*
X74095000Y-36909428D01*
X74095000Y-36623714D01*
X74152143Y-36509428D01*
X74209286Y-36452285D01*
X74323571Y-36395142D01*
X74609286Y-36395142D01*
X74723571Y-36452285D01*
X74780714Y-36509428D01*
X74837857Y-36623714D01*
X74837857Y-36909428D01*
X74780714Y-37023714D01*
X74723571Y-37080857D01*
X71809001Y-31403857D02*
X71409001Y-30832429D01*
X71123286Y-31403857D02*
X71123286Y-30203857D01*
X71580429Y-30203857D01*
X71694715Y-30261000D01*
X71751858Y-30318143D01*
X71809001Y-30432429D01*
X71809001Y-30603857D01*
X71751858Y-30718143D01*
X71694715Y-30775286D01*
X71580429Y-30832429D01*
X71123286Y-30832429D01*
X72837572Y-30203857D02*
X72609001Y-30203857D01*
X72494715Y-30261000D01*
X72437572Y-30318143D01*
X72323286Y-30489571D01*
X72266143Y-30718143D01*
X72266143Y-31175286D01*
X72323286Y-31289571D01*
X72380429Y-31346714D01*
X72494715Y-31403857D01*
X72723286Y-31403857D01*
X72837572Y-31346714D01*
X72894715Y-31289571D01*
X72951858Y-31175286D01*
X72951858Y-30889571D01*
X72894715Y-30775286D01*
X72837572Y-30718143D01*
X72723286Y-30661000D01*
X72494715Y-30661000D01*
X72380429Y-30718143D01*
X72323286Y-30775286D01*
X72266143Y-30889571D01*
D13*
X83780381Y-48259905D02*
X84589905Y-48259905D01*
X84685143Y-48212286D01*
X84732762Y-48164667D01*
X84780381Y-48069429D01*
X84780381Y-47878952D01*
X84732762Y-47783714D01*
X84685143Y-47736095D01*
X84589905Y-47688476D01*
X83780381Y-47688476D01*
X83875619Y-47259905D02*
X83828000Y-47212286D01*
X83780381Y-47117048D01*
X83780381Y-46878952D01*
X83828000Y-46783714D01*
X83875619Y-46736095D01*
X83970857Y-46688476D01*
X84066095Y-46688476D01*
X84208952Y-46736095D01*
X84780381Y-47307524D01*
X84780381Y-46688476D01*
X38060381Y-49021905D02*
X38869905Y-49021905D01*
X38965143Y-48974286D01*
X39012762Y-48926667D01*
X39060381Y-48831429D01*
X39060381Y-48640952D01*
X39012762Y-48545714D01*
X38965143Y-48498095D01*
X38869905Y-48450476D01*
X38060381Y-48450476D01*
X38393714Y-47545714D02*
X39060381Y-47545714D01*
X38012762Y-47783810D02*
X38727048Y-48021905D01*
X38727048Y-47402857D01*
X46646857Y-33426286D02*
X47618286Y-33426286D01*
X47732571Y-33369143D01*
X47789714Y-33312000D01*
X47846857Y-33197714D01*
X47846857Y-32969143D01*
X47789714Y-32854857D01*
X47732571Y-32797714D01*
X47618286Y-32740571D01*
X46646857Y-32740571D01*
X46646857Y-31597714D02*
X46646857Y-32169143D01*
X47218286Y-32226286D01*
X47161143Y-32169143D01*
X47104000Y-32054857D01*
X47104000Y-31769143D01*
X47161143Y-31654857D01*
X47218286Y-31597714D01*
X47332571Y-31540571D01*
X47618286Y-31540571D01*
X47732571Y-31597714D01*
X47789714Y-31654857D01*
X47846857Y-31769143D01*
X47846857Y-32054857D01*
X47789714Y-32169143D01*
X47732571Y-32226286D01*
X38782667Y-24852381D02*
X38782667Y-25566667D01*
X38735047Y-25709524D01*
X38639809Y-25804762D01*
X38496952Y-25852381D01*
X38401714Y-25852381D01*
X39163619Y-24852381D02*
X39782667Y-24852381D01*
X39449333Y-25233333D01*
X39592191Y-25233333D01*
X39687429Y-25280952D01*
X39735048Y-25328571D01*
X39782667Y-25423810D01*
X39782667Y-25661905D01*
X39735048Y-25757143D01*
X39687429Y-25804762D01*
X39592191Y-25852381D01*
X39306476Y-25852381D01*
X39211238Y-25804762D01*
X39163619Y-25757143D01*
X38782667Y-54824381D02*
X38782667Y-55538667D01*
X38735047Y-55681524D01*
X38639809Y-55776762D01*
X38496952Y-55824381D01*
X38401714Y-55824381D01*
X39687429Y-55157714D02*
X39687429Y-55824381D01*
X39449333Y-54776762D02*
X39211238Y-55491048D01*
X39830286Y-55491048D01*
X96440667Y-54824381D02*
X96440667Y-55538667D01*
X96393047Y-55681524D01*
X96297809Y-55776762D01*
X96154952Y-55824381D01*
X96059714Y-55824381D01*
X96869238Y-54919619D02*
X96916857Y-54872000D01*
X97012095Y-54824381D01*
X97250191Y-54824381D01*
X97345429Y-54872000D01*
X97393048Y-54919619D01*
X97440667Y-55014857D01*
X97440667Y-55110095D01*
X97393048Y-55252952D01*
X96821619Y-55824381D01*
X97440667Y-55824381D01*
X96440667Y-24852381D02*
X96440667Y-25566667D01*
X96393047Y-25709524D01*
X96297809Y-25804762D01*
X96154952Y-25852381D01*
X96059714Y-25852381D01*
X97440667Y-25852381D02*
X96869238Y-25852381D01*
X97154952Y-25852381D02*
X97154952Y-24852381D01*
X97059714Y-24995238D01*
X96964476Y-25090476D01*
X96869238Y-25138095D01*
D14*
X34661572Y-34197857D02*
X34261572Y-33626429D01*
X33975857Y-34197857D02*
X33975857Y-32997857D01*
X34433000Y-32997857D01*
X34547286Y-33055000D01*
X34604429Y-33112143D01*
X34661572Y-33226429D01*
X34661572Y-33397857D01*
X34604429Y-33512143D01*
X34547286Y-33569286D01*
X34433000Y-33626429D01*
X33975857Y-33626429D01*
X35804429Y-34197857D02*
X35118714Y-34197857D01*
X35461572Y-34197857D02*
X35461572Y-32997857D01*
X35347286Y-33169286D01*
X35233000Y-33283571D01*
X35118714Y-33340714D01*
X36947286Y-34197857D02*
X36261571Y-34197857D01*
X36604429Y-34197857D02*
X36604429Y-32997857D01*
X36490143Y-33169286D01*
X36375857Y-33283571D01*
X36261571Y-33340714D01*
X88446001Y-54784571D02*
X88388858Y-54841714D01*
X88217429Y-54898857D01*
X88103143Y-54898857D01*
X87931715Y-54841714D01*
X87817429Y-54727429D01*
X87760286Y-54613143D01*
X87703143Y-54384571D01*
X87703143Y-54213143D01*
X87760286Y-53984571D01*
X87817429Y-53870286D01*
X87931715Y-53756000D01*
X88103143Y-53698857D01*
X88217429Y-53698857D01*
X88388858Y-53756000D01*
X88446001Y-53813143D01*
X88903143Y-53813143D02*
X88960286Y-53756000D01*
X89074572Y-53698857D01*
X89360286Y-53698857D01*
X89474572Y-53756000D01*
X89531715Y-53813143D01*
X89588858Y-53927429D01*
X89588858Y-54041714D01*
X89531715Y-54213143D01*
X88846001Y-54898857D01*
X89588858Y-54898857D01*
X42869001Y-55165571D02*
X42811858Y-55222714D01*
X42640429Y-55279857D01*
X42526143Y-55279857D01*
X42354715Y-55222714D01*
X42240429Y-55108429D01*
X42183286Y-54994143D01*
X42126143Y-54765571D01*
X42126143Y-54594143D01*
X42183286Y-54365571D01*
X42240429Y-54251286D01*
X42354715Y-54137000D01*
X42526143Y-54079857D01*
X42640429Y-54079857D01*
X42811858Y-54137000D01*
X42869001Y-54194143D01*
X43269001Y-54079857D02*
X44011858Y-54079857D01*
X43611858Y-54537000D01*
X43783286Y-54537000D01*
X43897572Y-54594143D01*
X43954715Y-54651286D01*
X44011858Y-54765571D01*
X44011858Y-55051286D01*
X43954715Y-55165571D01*
X43897572Y-55222714D01*
X43783286Y-55279857D01*
X43440429Y-55279857D01*
X43326143Y-55222714D01*
X43269001Y-55165571D01*
X51473001Y-28368571D02*
X51415858Y-28425714D01*
X51244429Y-28482857D01*
X51130143Y-28482857D01*
X50958715Y-28425714D01*
X50844429Y-28311429D01*
X50787286Y-28197143D01*
X50730143Y-27968571D01*
X50730143Y-27797143D01*
X50787286Y-27568571D01*
X50844429Y-27454286D01*
X50958715Y-27340000D01*
X51130143Y-27282857D01*
X51244429Y-27282857D01*
X51415858Y-27340000D01*
X51473001Y-27397143D01*
X52501572Y-27682857D02*
X52501572Y-28482857D01*
X52215858Y-27225714D02*
X51930143Y-28082857D01*
X52673001Y-28082857D01*
M02*
