G04 #@! TF.FileFunction,Copper,L1,Top,Signal*
%FSLAX46Y46*%
G04 Gerber Fmt 4.6, Leading zero omitted, Abs format (unit mm)*
G04 Created by KiCad (PCBNEW 4.0.6) date 09/07/17 18:35:35*
%MOMM*%
%LPD*%
G01*
G04 APERTURE LIST*
%ADD10C,0.100000*%
%ADD11R,1.200000X0.900000*%
%ADD12R,1.900000X0.800000*%
%ADD13R,0.800000X1.900000*%
%ADD14R,0.900000X1.200000*%
%ADD15O,2.000000X1.200000*%
%ADD16R,1.143000X0.508000*%
%ADD17R,2.200000X0.600000*%
%ADD18C,1.700000*%
%ADD19C,0.800000*%
%ADD20C,0.600000*%
%ADD21C,0.400000*%
%ADD22C,0.250000*%
G04 APERTURE END LIST*
D10*
D11*
X52054000Y-40386000D03*
X50054000Y-40386000D03*
D12*
X88725000Y-38288000D03*
X88725000Y-36388000D03*
X85725000Y-37338000D03*
D13*
X76642000Y-44601000D03*
X74742000Y-44601000D03*
X75692000Y-47601000D03*
D12*
X82725000Y-30800000D03*
X82725000Y-32700000D03*
X85725000Y-31750000D03*
D14*
X80137000Y-52800000D03*
X80137000Y-50800000D03*
X34163000Y-49546000D03*
X34163000Y-51546000D03*
X81280000Y-40132000D03*
X81280000Y-38132000D03*
X74295000Y-41386000D03*
X74295000Y-39386000D03*
D11*
X76057000Y-30861000D03*
X74057000Y-30861000D03*
D15*
X68130000Y-35410000D03*
X96070000Y-35410000D03*
X68130000Y-37950000D03*
X96070000Y-37950000D03*
X68130000Y-40490000D03*
X96070000Y-40490000D03*
X68130000Y-43030000D03*
X96070000Y-43030000D03*
X68130000Y-45570000D03*
X96070000Y-45570000D03*
X68130000Y-48110000D03*
X96070000Y-48110000D03*
X68130000Y-50650000D03*
X96070000Y-50650000D03*
X68130000Y-53190000D03*
X96070000Y-53190000D03*
D16*
X82423000Y-52070000D03*
X82423000Y-49530000D03*
X82423000Y-48260000D03*
X82423000Y-46990000D03*
X82423000Y-45720000D03*
X82423000Y-44450000D03*
X82423000Y-43180000D03*
X88773000Y-43180000D03*
X88773000Y-44450000D03*
X88773000Y-45720000D03*
X88773000Y-46990000D03*
X88773000Y-48260000D03*
X88773000Y-49530000D03*
X88773000Y-50800000D03*
X88773000Y-52070000D03*
X82423000Y-50800000D03*
D15*
X30330000Y-35410000D03*
X58270000Y-35410000D03*
X30330000Y-37950000D03*
X58270000Y-37950000D03*
X30330000Y-40490000D03*
X58270000Y-40490000D03*
X30330000Y-43030000D03*
X58270000Y-43030000D03*
X30330000Y-45570000D03*
X58270000Y-45570000D03*
X30330000Y-48110000D03*
X58270000Y-48110000D03*
X30330000Y-50650000D03*
X58270000Y-50650000D03*
X30330000Y-53190000D03*
X58270000Y-53190000D03*
D16*
X36703000Y-52832000D03*
X36703000Y-50292000D03*
X36703000Y-49022000D03*
X36703000Y-47752000D03*
X36703000Y-46482000D03*
X36703000Y-45212000D03*
X36703000Y-43942000D03*
X43053000Y-43942000D03*
X43053000Y-45212000D03*
X43053000Y-46482000D03*
X43053000Y-47752000D03*
X43053000Y-49022000D03*
X43053000Y-50292000D03*
X43053000Y-51562000D03*
X43053000Y-52832000D03*
X36703000Y-51562000D03*
D17*
X49904000Y-27940000D03*
X44704000Y-27940000D03*
X49904000Y-29210000D03*
X44704000Y-29210000D03*
X49904000Y-30480000D03*
X44704000Y-30480000D03*
X49904000Y-31750000D03*
X44704000Y-31750000D03*
X49904000Y-33020000D03*
X44704000Y-33020000D03*
X49904000Y-34290000D03*
X44704000Y-34290000D03*
X49904000Y-35560000D03*
X44704000Y-35560000D03*
X49904000Y-36830000D03*
X44704000Y-36830000D03*
D18*
X39116000Y-27940000D03*
X39116000Y-30480000D03*
X36576000Y-27940000D03*
X36576000Y-30480000D03*
X39116000Y-57912000D03*
X39116000Y-60452000D03*
X36576000Y-57912000D03*
X36576000Y-60452000D03*
X96774000Y-57912000D03*
X96774000Y-60452000D03*
X94234000Y-57912000D03*
X94234000Y-60452000D03*
X96774000Y-27940000D03*
X96774000Y-30480000D03*
X94234000Y-27940000D03*
X94234000Y-30480000D03*
D11*
X39481000Y-33655000D03*
X37481000Y-33655000D03*
X84598000Y-54356000D03*
X86598000Y-54356000D03*
X39021000Y-54737000D03*
X41021000Y-54737000D03*
X55721000Y-27940000D03*
X53721000Y-27940000D03*
D19*
X60960000Y-59055000D03*
X75692000Y-59055000D03*
X84582000Y-56769000D03*
X60960000Y-29464000D03*
X53721000Y-29464000D03*
X54102000Y-56769000D03*
X54102000Y-50673000D03*
X39878000Y-44323000D03*
X39116000Y-35560000D03*
X62230000Y-59182000D03*
X80137000Y-59436000D03*
X86614000Y-59436000D03*
X54610000Y-37973000D03*
X44704000Y-37973000D03*
X38100000Y-49022000D03*
X40132000Y-49022000D03*
D20*
X47117000Y-30480000D03*
X45720000Y-62230000D03*
X47117000Y-42545000D03*
X34290000Y-42672000D03*
X38227000Y-50292000D03*
X32512000Y-50419000D03*
X52070000Y-42545000D03*
X88773000Y-40132000D03*
X82931000Y-40132000D03*
D19*
X73152000Y-48514000D03*
X80010000Y-32766000D03*
D20*
X52451000Y-30480000D03*
X64389000Y-30480000D03*
X53594000Y-35179000D03*
X64770000Y-35560000D03*
X52451000Y-33020000D03*
X72263000Y-30861000D03*
X48895000Y-50800000D03*
X52451000Y-34290000D03*
X47244000Y-34290000D03*
X55245000Y-55880000D03*
X52070000Y-38989000D03*
X42672000Y-35560000D03*
X28829000Y-33020000D03*
X27940000Y-50800000D03*
X71501000Y-46228000D03*
X80518000Y-46228000D03*
X91694000Y-41910000D03*
X86614000Y-43053000D03*
X80137000Y-45339000D03*
X83947000Y-46990000D03*
X86868000Y-46355000D03*
X71501000Y-47244000D03*
X77470000Y-61595000D03*
X77470000Y-50800000D03*
X83820000Y-50800000D03*
X44831000Y-61595000D03*
X46355000Y-40513000D03*
X44577000Y-47752000D03*
X32385000Y-47752000D03*
X54610000Y-39751000D03*
X45339000Y-40513000D03*
X35306000Y-45212000D03*
X48006000Y-43180000D03*
X47752000Y-53721000D03*
X35306000Y-43942000D03*
X43053000Y-42926000D03*
X40640000Y-34798000D03*
X42672000Y-34290000D03*
D21*
X84598000Y-52070000D02*
X84963000Y-51705000D01*
X84963000Y-51705000D02*
X84963000Y-44450000D01*
X84963000Y-44450000D02*
X84709000Y-44196000D01*
X84709000Y-44196000D02*
X84709000Y-39154000D01*
X84709000Y-39154000D02*
X85725000Y-38138000D01*
X85725000Y-38138000D02*
X85725000Y-37338000D01*
X85725000Y-31750000D02*
X85725000Y-37338000D01*
X84598000Y-54356000D02*
X84598000Y-52070000D01*
X82423000Y-52070000D02*
X84598000Y-52070000D01*
X75692000Y-47601000D02*
X75692000Y-59055000D01*
X84598000Y-54356000D02*
X84598000Y-56753000D01*
X84598000Y-56753000D02*
X84582000Y-56769000D01*
X60960000Y-31496000D02*
X60960000Y-29464000D01*
X60960000Y-31496000D02*
X60960000Y-59055000D01*
X53721000Y-27940000D02*
X53721000Y-29464000D01*
X49904000Y-27940000D02*
X53721000Y-27940000D01*
X39021000Y-54737000D02*
X39021000Y-53887000D01*
X39021000Y-53887000D02*
X39116000Y-53792000D01*
X39116000Y-53792000D02*
X39116000Y-52832000D01*
X39116000Y-57912000D02*
X39116000Y-54832000D01*
X39116000Y-54832000D02*
X39021000Y-54737000D01*
X39116000Y-54959000D02*
X38894000Y-54737000D01*
X37481000Y-34941000D02*
X38100000Y-35560000D01*
X38100000Y-35560000D02*
X39116000Y-35560000D01*
X37481000Y-33655000D02*
X37481000Y-34941000D01*
X54102000Y-50673000D02*
X54102000Y-56769000D01*
X39116000Y-52832000D02*
X39116000Y-44323000D01*
X39116000Y-44323000D02*
X39116000Y-35560000D01*
X39878000Y-44323000D02*
X39116000Y-44323000D01*
X36703000Y-52832000D02*
X39116000Y-52832000D01*
X86598000Y-52721000D02*
X87249000Y-52070000D01*
X87249000Y-52070000D02*
X88773000Y-52070000D01*
X86598000Y-54356000D02*
X86598000Y-52721000D01*
X82423000Y-48260000D02*
X79629000Y-48260000D01*
X79629000Y-48260000D02*
X78740000Y-49149000D01*
X78740000Y-52451000D02*
X79089000Y-52800000D01*
X78740000Y-49149000D02*
X78740000Y-52451000D01*
X79089000Y-52800000D02*
X80137000Y-52800000D01*
X41656000Y-37084000D02*
X41656000Y-33020000D01*
X41656000Y-33020000D02*
X41656000Y-32258000D01*
X44704000Y-33020000D02*
X41656000Y-33020000D01*
X41656000Y-32258000D02*
X42164000Y-31750000D01*
X42164000Y-31750000D02*
X44704000Y-31750000D01*
X41656000Y-37084000D02*
X41910000Y-36830000D01*
X41021000Y-37719000D02*
X41656000Y-37084000D01*
X80137000Y-52800000D02*
X80137000Y-59436000D01*
X86598000Y-54356000D02*
X86598000Y-59420000D01*
X86598000Y-59420000D02*
X86614000Y-59436000D01*
X54610000Y-37973000D02*
X54610000Y-30565998D01*
X55721000Y-29454998D02*
X55721000Y-27940000D01*
X54610000Y-30565998D02*
X55721000Y-29454998D01*
X44704000Y-36830000D02*
X44704000Y-37973000D01*
X62230000Y-29210000D02*
X60960000Y-27940000D01*
X60960000Y-27940000D02*
X55721000Y-27940000D01*
X62230000Y-59182000D02*
X62230000Y-29210000D01*
X41021000Y-54737000D02*
X41021000Y-58547000D01*
X41021000Y-58547000D02*
X39116000Y-60452000D01*
X41021000Y-54737000D02*
X41021000Y-52832000D01*
X38100000Y-49022000D02*
X36703000Y-49022000D01*
X34163000Y-49546000D02*
X34687000Y-49022000D01*
X34687000Y-49022000D02*
X36703000Y-49022000D01*
X41021000Y-52832000D02*
X41021000Y-49022000D01*
X41021000Y-49022000D02*
X41021000Y-37719000D01*
X40132000Y-49022000D02*
X41021000Y-49022000D01*
X43053000Y-52832000D02*
X41021000Y-52832000D01*
X44704000Y-36830000D02*
X41910000Y-36830000D01*
D22*
X44704000Y-27940000D02*
X46736000Y-27940000D01*
X46736000Y-27940000D02*
X47047990Y-27628010D01*
X47047991Y-27118599D02*
X47946600Y-26219990D01*
X47047990Y-27628010D02*
X47047991Y-27118599D01*
X47946600Y-26219990D02*
X92513990Y-26219990D01*
X92513990Y-26219990D02*
X94234000Y-27940000D01*
X39116000Y-27940000D02*
X44704000Y-27940000D01*
X44704000Y-29210000D02*
X46736000Y-29210000D01*
X90424000Y-26670000D02*
X90932000Y-27178000D01*
X46736000Y-29210000D02*
X47498000Y-28448000D01*
X47498000Y-28448000D02*
X47498000Y-27305000D01*
X91567000Y-32258000D02*
X94996000Y-32258000D01*
X47498000Y-27305000D02*
X48133000Y-26670000D01*
X48133000Y-26670000D02*
X90424000Y-26670000D01*
X90932000Y-27178000D02*
X90932000Y-31623000D01*
X90932000Y-31623000D02*
X91567000Y-32258000D01*
X94996000Y-32258000D02*
X96774000Y-30480000D01*
X37846000Y-29210000D02*
X44704000Y-29210000D01*
X36576000Y-30480000D02*
X37846000Y-29210000D01*
X44704000Y-30480000D02*
X47117000Y-30480000D01*
X39116000Y-30480000D02*
X44704000Y-30480000D01*
X88773000Y-50800000D02*
X90170000Y-50800000D01*
X96325081Y-56261000D02*
X96774000Y-56709919D01*
X90170000Y-50800000D02*
X90678000Y-51308000D01*
X91059000Y-56261000D02*
X96325081Y-56261000D01*
X90678000Y-51308000D02*
X90678000Y-55880000D01*
X90678000Y-55880000D02*
X91059000Y-56261000D01*
X96774000Y-56709919D02*
X96774000Y-57912000D01*
X91567000Y-50165000D02*
X90932000Y-49530000D01*
X90932000Y-49530000D02*
X88773000Y-49530000D01*
X91567000Y-54991000D02*
X91567000Y-50165000D01*
X92075000Y-55499000D02*
X91567000Y-54991000D01*
X97536000Y-55499000D02*
X92075000Y-55499000D01*
X98552000Y-56515000D02*
X97536000Y-55499000D01*
X98552000Y-59876081D02*
X98552000Y-56515000D01*
X96774000Y-60452000D02*
X97976081Y-60452000D01*
X97976081Y-60452000D02*
X98552000Y-59876081D01*
X43053000Y-50292000D02*
X45212000Y-50292000D01*
X45212000Y-50292000D02*
X45720000Y-50800000D01*
X45720000Y-50800000D02*
X45720000Y-62230000D01*
X43053000Y-50292000D02*
X43370500Y-50292000D01*
X98425000Y-48387000D02*
X98425000Y-29591000D01*
X98425000Y-29591000D02*
X96774000Y-27940000D01*
X97409000Y-49403000D02*
X98425000Y-48387000D01*
X94107000Y-49403000D02*
X97409000Y-49403000D01*
X92964000Y-48260000D02*
X94107000Y-49403000D01*
X88773000Y-48260000D02*
X92964000Y-48260000D01*
X46609000Y-49022000D02*
X47117000Y-48514000D01*
X47117000Y-48514000D02*
X47117000Y-42545000D01*
X43053000Y-49022000D02*
X46609000Y-49022000D01*
X34290000Y-42672000D02*
X34290000Y-28575000D01*
X34925000Y-27940000D02*
X36576000Y-27940000D01*
X34290000Y-28575000D02*
X34925000Y-27940000D01*
X38227000Y-50292000D02*
X36703000Y-50292000D01*
X33528000Y-54610000D02*
X32512000Y-53594000D01*
X32512000Y-53594000D02*
X32512000Y-50419000D01*
X35179000Y-54610000D02*
X33528000Y-54610000D01*
X36576000Y-56007000D02*
X35179000Y-54610000D01*
X36576000Y-57912000D02*
X36576000Y-56007000D01*
X52054000Y-40386000D02*
X52054000Y-42529000D01*
X52054000Y-42529000D02*
X52070000Y-42545000D01*
X88773000Y-40132000D02*
X88773000Y-38439000D01*
X88773000Y-38439000D02*
X88622000Y-38288000D01*
X81280000Y-40132000D02*
X82931000Y-40132000D01*
D21*
X96070000Y-37950000D02*
X94670000Y-37950000D01*
X94670000Y-37950000D02*
X93108000Y-36388000D01*
X93108000Y-36388000D02*
X88622000Y-36388000D01*
D22*
X76581000Y-42291000D02*
X75676000Y-41386000D01*
X75676000Y-41386000D02*
X74295000Y-41386000D01*
X76581000Y-43990000D02*
X76581000Y-42291000D01*
X76642000Y-44601000D02*
X76642000Y-44051000D01*
X76642000Y-44051000D02*
X76581000Y-43990000D01*
D21*
X73152000Y-45391000D02*
X73152000Y-48514000D01*
X74742000Y-44601000D02*
X73942000Y-44601000D01*
X73942000Y-44601000D02*
X73152000Y-45391000D01*
D22*
X76057000Y-30861000D02*
X82664000Y-30861000D01*
X82664000Y-30861000D02*
X82725000Y-30800000D01*
D21*
X82725000Y-32700000D02*
X80076000Y-32700000D01*
X80076000Y-32700000D02*
X80010000Y-32766000D01*
D22*
X80137000Y-50800000D02*
X82423000Y-50800000D01*
X34163000Y-51546000D02*
X36687000Y-51546000D01*
X36687000Y-51546000D02*
X36703000Y-51562000D01*
X49904000Y-29210000D02*
X48387000Y-29210000D01*
X48387000Y-29210000D02*
X48006000Y-29591000D01*
X48006000Y-29591000D02*
X48006000Y-37638000D01*
X48006000Y-37638000D02*
X50054000Y-39686000D01*
X50054000Y-39686000D02*
X50054000Y-40386000D01*
X52451000Y-30480000D02*
X49904000Y-30480000D01*
X77018000Y-33020000D02*
X66929000Y-33020000D01*
X66929000Y-33020000D02*
X64389000Y-30480000D01*
X81280000Y-38132000D02*
X81280000Y-37282000D01*
X81280000Y-37282000D02*
X77018000Y-33020000D01*
X53594000Y-32385000D02*
X52959000Y-31750000D01*
X52959000Y-31750000D02*
X49904000Y-31750000D01*
X53594000Y-35179000D02*
X53594000Y-32385000D01*
X72462000Y-36703000D02*
X65913000Y-36703000D01*
X65913000Y-36703000D02*
X64770000Y-35560000D01*
X74295000Y-39386000D02*
X74295000Y-38536000D01*
X74295000Y-38536000D02*
X72462000Y-36703000D01*
X52451000Y-33020000D02*
X49904000Y-33020000D01*
X74057000Y-30861000D02*
X72263000Y-30861000D01*
X48895000Y-50800000D02*
X48895000Y-39163410D01*
X48895000Y-39163410D02*
X47244000Y-37512410D01*
X47244000Y-37512410D02*
X47244000Y-34290000D01*
X52451000Y-34290000D02*
X49904000Y-34290000D01*
X55245000Y-49403000D02*
X55245000Y-55880000D01*
X53721000Y-47879000D02*
X55245000Y-49403000D01*
X53721000Y-37084000D02*
X53721000Y-47879000D01*
X52197000Y-35560000D02*
X53721000Y-37084000D01*
X49904000Y-35560000D02*
X52197000Y-35560000D01*
X52070000Y-37338000D02*
X52070000Y-38989000D01*
X51562000Y-36830000D02*
X52070000Y-37338000D01*
X49904000Y-36830000D02*
X51562000Y-36830000D01*
X44704000Y-35560000D02*
X42672000Y-35560000D01*
X27940000Y-50800000D02*
X27640001Y-50500001D01*
X27640001Y-50500001D02*
X27640001Y-34208999D01*
X27640001Y-34208999D02*
X28829000Y-33020000D01*
X44704000Y-35560000D02*
X45504000Y-35560000D01*
X76708000Y-36703000D02*
X75415000Y-35410000D01*
X75415000Y-35410000D02*
X68130000Y-35410000D01*
X76708000Y-39370000D02*
X76708000Y-36703000D01*
X79121000Y-41783000D02*
X76708000Y-39370000D01*
X79121000Y-46228000D02*
X79121000Y-41783000D01*
X79883000Y-46990000D02*
X79121000Y-46228000D01*
X82423000Y-46990000D02*
X79883000Y-46990000D01*
X71501000Y-38735000D02*
X70716000Y-37950000D01*
X70716000Y-37950000D02*
X68130000Y-37950000D01*
X71501000Y-46228000D02*
X71501000Y-38735000D01*
X82423000Y-45720000D02*
X81026000Y-45720000D01*
X81026000Y-45720000D02*
X80518000Y-46228000D01*
X88773000Y-45720000D02*
X90297000Y-45720000D01*
X90297000Y-45720000D02*
X90678000Y-45339000D01*
X90678000Y-45339000D02*
X90678000Y-41148000D01*
X90678000Y-41148000D02*
X91336000Y-40490000D01*
X91336000Y-40490000D02*
X96070000Y-40490000D01*
X90932000Y-46990000D02*
X91694000Y-46228000D01*
X91694000Y-46228000D02*
X91694000Y-41910000D01*
X88773000Y-46990000D02*
X90932000Y-46990000D01*
X86614000Y-43815000D02*
X86614000Y-43053000D01*
X87249000Y-44450000D02*
X86614000Y-43815000D01*
X88773000Y-44450000D02*
X87249000Y-44450000D01*
X82423000Y-44450000D02*
X81026000Y-44450000D01*
X81026000Y-44450000D02*
X80137000Y-45339000D01*
X83947000Y-43561000D02*
X83947000Y-46990000D01*
X83566000Y-43180000D02*
X83947000Y-43561000D01*
X82423000Y-43180000D02*
X83566000Y-43180000D01*
X86868000Y-45212000D02*
X86868000Y-46355000D01*
X85598000Y-43942000D02*
X86868000Y-45212000D01*
X85598000Y-42545000D02*
X85598000Y-43942000D01*
X71501000Y-49784000D02*
X71501000Y-47244000D01*
X71501000Y-49784000D02*
X70635000Y-50650000D01*
X70635000Y-50650000D02*
X68130000Y-50650000D01*
X85979000Y-42164000D02*
X85598000Y-42545000D01*
X88261000Y-42164000D02*
X85979000Y-42164000D01*
X88773000Y-43180000D02*
X88773000Y-42676000D01*
X88773000Y-42676000D02*
X88261000Y-42164000D01*
X77470000Y-50800000D02*
X77470000Y-61595000D01*
X83439000Y-49530000D02*
X83820000Y-49911000D01*
X83820000Y-49911000D02*
X83820000Y-50800000D01*
X82423000Y-49530000D02*
X83439000Y-49530000D01*
X44196000Y-51562000D02*
X44831000Y-52197000D01*
X44831000Y-52197000D02*
X44831000Y-61595000D01*
X43053000Y-51562000D02*
X44196000Y-51562000D01*
X36703000Y-47752000D02*
X33909000Y-47752000D01*
X33909000Y-47752000D02*
X32258000Y-49403000D01*
X32258000Y-49403000D02*
X28829000Y-49403000D01*
X28829000Y-49403000D02*
X28321000Y-48895000D01*
X28321000Y-48895000D02*
X28321000Y-37019000D01*
X28321000Y-37019000D02*
X29930000Y-35410000D01*
X29930000Y-35410000D02*
X30330000Y-35410000D01*
X33020000Y-38735000D02*
X32235000Y-37950000D01*
X32235000Y-37950000D02*
X30330000Y-37950000D01*
X33020000Y-45974000D02*
X33020000Y-38735000D01*
X33528000Y-46482000D02*
X33020000Y-45974000D01*
X36703000Y-46482000D02*
X33528000Y-46482000D01*
X30730000Y-37950000D02*
X30330000Y-37950000D01*
X46355000Y-45974000D02*
X45847000Y-46482000D01*
X45847000Y-46482000D02*
X43053000Y-46482000D01*
X46355000Y-40513000D02*
X46355000Y-45974000D01*
X43053000Y-46482000D02*
X43370500Y-46482000D01*
X44577000Y-47752000D02*
X43053000Y-47752000D01*
X30330000Y-43030000D02*
X30730000Y-43030000D01*
X30730000Y-43030000D02*
X32385000Y-44685000D01*
X32385000Y-44685000D02*
X32385000Y-47752000D01*
X43370500Y-47752000D02*
X43053000Y-47752000D01*
X54610000Y-39751000D02*
X54610000Y-42672000D01*
X44704000Y-45212000D02*
X45339000Y-44577000D01*
X45339000Y-44577000D02*
X45339000Y-40513000D01*
X43370500Y-45212000D02*
X44704000Y-45212000D01*
X43053000Y-45212000D02*
X43370500Y-45212000D01*
X54968000Y-43030000D02*
X54610000Y-42672000D01*
X58270000Y-43030000D02*
X54968000Y-43030000D01*
X57870000Y-43030000D02*
X58270000Y-43030000D01*
X36703000Y-45212000D02*
X35306000Y-45212000D01*
X36703000Y-45212000D02*
X36843502Y-45212000D01*
X48006000Y-49149000D02*
X48006000Y-43180000D01*
X47752000Y-53721000D02*
X47752000Y-49403000D01*
X47752000Y-49403000D02*
X48006000Y-49149000D01*
X36703000Y-43942000D02*
X35306000Y-43942000D01*
X36703000Y-43942000D02*
X37020500Y-43942000D01*
X43053000Y-43942000D02*
X43053000Y-42926000D01*
X43180000Y-43815000D02*
X43053000Y-43942000D01*
X43053000Y-43942000D02*
X42735500Y-43942000D01*
X40640000Y-34798000D02*
X40624000Y-34798000D01*
X40624000Y-34798000D02*
X39481000Y-33655000D01*
X44704000Y-34290000D02*
X42672000Y-34290000D01*
M02*
