M48
;DRILL file {KiCad 4.0.6} date 09/03/17 13:55:50
;FORMAT={-:-/ absolute / inch / decimal}
FMAT,2
INCH,TZ
T1C0.016
T2C0.020
T3C0.031
T4C0.039
%
G90
G05
M72
T1
X1.1Y-2.
X1.135Y-1.3
X1.275Y-1.88
X1.28Y-1.985
X1.35Y-1.68
X1.39Y-1.73
X1.39Y-1.78
X1.505Y-1.98
X1.6Y-1.37
X1.68Y-1.35
X1.68Y-1.4
X1.695Y-1.69
X1.755Y-1.88
X1.765Y-2.425
X1.785Y-1.595
X1.8Y-2.45
X1.825Y-1.595
X1.855Y-1.2
X1.855Y-1.675
X1.86Y-1.35
X1.88Y-2.115
X1.89Y-1.7
X1.925Y-2.
X2.05Y-1.535
X2.05Y-1.675
X2.065Y-1.2
X2.065Y-1.3
X2.065Y-1.35
X2.11Y-1.385
X2.15Y-1.565
X2.175Y-2.2
X2.535Y-1.2
X2.55Y-1.4
X2.815Y-1.82
X2.815Y-1.86
X2.845Y-1.215
X3.05Y-2.
X3.05Y-2.425
X3.155Y-1.785
X3.17Y-1.82
X3.265Y-1.58
X3.3Y-2.
X3.305Y-1.85
X3.41Y-1.695
X3.42Y-1.825
X3.495Y-1.58
X3.61Y-1.65
T2
X1.5Y-1.93
X1.54Y-1.4
X1.57Y-1.745
X1.58Y-1.93
X1.76Y-1.495
X2.115Y-1.16
X2.13Y-1.995
X2.13Y-2.235
X2.15Y-1.495
X2.4Y-1.16
X2.4Y-2.325
X2.45Y-2.33
X2.88Y-1.91
X2.98Y-2.325
X3.15Y-1.29
X3.155Y-2.34
X3.33Y-2.235
X3.41Y-2.34
T3
X1.1941Y-1.3941
X1.1941Y-1.4941
X1.1941Y-1.5941
X1.1941Y-1.6941
X1.1941Y-1.7941
X1.1941Y-1.8941
X1.1941Y-1.9941
X1.1941Y-2.0941
X2.2941Y-1.3941
X2.2941Y-1.4941
X2.2941Y-1.5941
X2.2941Y-1.6941
X2.2941Y-1.7941
X2.2941Y-1.8941
X2.2941Y-1.9941
X2.2941Y-2.0941
X2.6823Y-1.3941
X2.6823Y-1.4941
X2.6823Y-1.5941
X2.6823Y-1.6941
X2.6823Y-1.7941
X2.6823Y-1.8941
X2.6823Y-1.9941
X2.6823Y-2.0941
X3.7823Y-1.3941
X3.7823Y-1.4941
X3.7823Y-1.5941
X3.7823Y-1.6941
X3.7823Y-1.7941
X3.7823Y-1.8941
X3.7823Y-1.9941
X3.7823Y-2.0941
T4
X1.44Y-1.1
X1.44Y-1.2
X1.44Y-2.28
X1.44Y-2.38
X1.54Y-1.1
X1.54Y-1.2
X1.54Y-2.28
X1.54Y-2.38
X3.71Y-1.1
X3.71Y-1.2
X3.71Y-2.28
X3.71Y-2.38
X3.81Y-1.1
X3.81Y-1.2
X3.81Y-2.28
X3.81Y-2.38
T0
M30
