G04 #@! TF.FileFunction,Legend,Bot*
%FSLAX46Y46*%
G04 Gerber Fmt 4.6, Leading zero omitted, Abs format (unit mm)*
G04 Created by KiCad (PCBNEW 4.0.6) date 09/03/17 13:59:48*
%MOMM*%
%LPD*%
G01*
G04 APERTURE LIST*
%ADD10C,0.100000*%
%ADD11C,0.120000*%
%ADD12C,0.160000*%
%ADD13C,1.000000*%
%ADD14C,0.150000*%
%ADD15C,0.200000*%
G04 APERTURE END LIST*
D10*
D11*
X53314000Y-47630000D02*
X53314000Y-48560000D01*
X53314000Y-50790000D02*
X53314000Y-49860000D01*
X53314000Y-50790000D02*
X50154000Y-50790000D01*
X53314000Y-47630000D02*
X51854000Y-47630000D01*
X75920000Y-52710000D02*
X75920000Y-53640000D01*
X75920000Y-55870000D02*
X75920000Y-54940000D01*
X75920000Y-55870000D02*
X72760000Y-55870000D01*
X75920000Y-52710000D02*
X74460000Y-52710000D01*
X37110000Y-40000000D02*
X37110000Y-39070000D01*
X37110000Y-36840000D02*
X37110000Y-37770000D01*
X37110000Y-36840000D02*
X40270000Y-36840000D01*
X37110000Y-40000000D02*
X38570000Y-40000000D01*
X32510000Y-56459000D02*
X32510000Y-57389000D01*
X32510000Y-59619000D02*
X32510000Y-58689000D01*
X32510000Y-59619000D02*
X29350000Y-59619000D01*
X32510000Y-56459000D02*
X31050000Y-56459000D01*
D12*
X50854000Y-52910000D02*
X49254000Y-52910000D01*
X50854000Y-51230000D02*
X49254000Y-51230000D01*
X69380000Y-56720000D02*
X67780000Y-56720000D01*
X69380000Y-55040000D02*
X67780000Y-55040000D01*
X42253000Y-38530000D02*
X43853000Y-38530000D01*
X42253000Y-40210000D02*
X43853000Y-40210000D01*
X31915000Y-61800000D02*
X30315000Y-61800000D01*
X31915000Y-60120000D02*
X30315000Y-60120000D01*
D13*
X99100000Y-41300000D02*
X99100000Y-47300000D01*
D14*
X101000000Y-25400000D02*
X101000000Y-63200000D01*
X101000000Y-63200000D02*
X63200000Y-63200000D01*
X63200000Y-63200000D02*
X63200000Y-25400000D01*
X63200000Y-25400000D02*
X101000000Y-25400000D01*
D13*
X61300000Y-41300000D02*
X61300000Y-47300000D01*
D14*
X63200000Y-25400000D02*
X63200000Y-63200000D01*
X63200000Y-63200000D02*
X25400000Y-63200000D01*
X25400000Y-63200000D02*
X25400000Y-25400000D01*
X25400000Y-25400000D02*
X63200000Y-25400000D01*
D11*
X51794000Y-45903000D02*
X51794000Y-44973000D01*
X51794000Y-42743000D02*
X51794000Y-43673000D01*
X51794000Y-42743000D02*
X54954000Y-42743000D01*
X51794000Y-45903000D02*
X53254000Y-45903000D01*
D12*
X44069000Y-58182000D02*
X44069000Y-60182000D01*
X41783000Y-58182000D02*
X41783000Y-60182000D01*
D14*
X52649238Y-52257619D02*
X52744476Y-52210000D01*
X52839714Y-52114762D01*
X52982571Y-51971905D01*
X53077810Y-51924286D01*
X53173048Y-51924286D01*
X53125429Y-52162381D02*
X53220667Y-52114762D01*
X53315905Y-52019524D01*
X53363524Y-51829048D01*
X53363524Y-51495714D01*
X53315905Y-51305238D01*
X53220667Y-51210000D01*
X53125429Y-51162381D01*
X52934952Y-51162381D01*
X52839714Y-51210000D01*
X52744476Y-51305238D01*
X52696857Y-51495714D01*
X52696857Y-51829048D01*
X52744476Y-52019524D01*
X52839714Y-52114762D01*
X52934952Y-52162381D01*
X53125429Y-52162381D01*
X51792095Y-51162381D02*
X52268286Y-51162381D01*
X52315905Y-51638571D01*
X52268286Y-51590952D01*
X52173048Y-51543333D01*
X51934952Y-51543333D01*
X51839714Y-51590952D01*
X51792095Y-51638571D01*
X51744476Y-51733810D01*
X51744476Y-51971905D01*
X51792095Y-52067143D01*
X51839714Y-52114762D01*
X51934952Y-52162381D01*
X52173048Y-52162381D01*
X52268286Y-52114762D01*
X52315905Y-52067143D01*
X75255238Y-57337619D02*
X75350476Y-57290000D01*
X75445714Y-57194762D01*
X75588571Y-57051905D01*
X75683810Y-57004286D01*
X75779048Y-57004286D01*
X75731429Y-57242381D02*
X75826667Y-57194762D01*
X75921905Y-57099524D01*
X75969524Y-56909048D01*
X75969524Y-56575714D01*
X75921905Y-56385238D01*
X75826667Y-56290000D01*
X75731429Y-56242381D01*
X75540952Y-56242381D01*
X75445714Y-56290000D01*
X75350476Y-56385238D01*
X75302857Y-56575714D01*
X75302857Y-56909048D01*
X75350476Y-57099524D01*
X75445714Y-57194762D01*
X75540952Y-57242381D01*
X75731429Y-57242381D01*
X74445714Y-56242381D02*
X74636191Y-56242381D01*
X74731429Y-56290000D01*
X74779048Y-56337619D01*
X74874286Y-56480476D01*
X74921905Y-56670952D01*
X74921905Y-57051905D01*
X74874286Y-57147143D01*
X74826667Y-57194762D01*
X74731429Y-57242381D01*
X74540952Y-57242381D01*
X74445714Y-57194762D01*
X74398095Y-57147143D01*
X74350476Y-57051905D01*
X74350476Y-56813810D01*
X74398095Y-56718571D01*
X74445714Y-56670952D01*
X74540952Y-56623333D01*
X74731429Y-56623333D01*
X74826667Y-56670952D01*
X74874286Y-56718571D01*
X74921905Y-56813810D01*
X37965238Y-36467619D02*
X38060476Y-36420000D01*
X38155714Y-36324762D01*
X38298571Y-36181905D01*
X38393810Y-36134286D01*
X38489048Y-36134286D01*
X38441429Y-36372381D02*
X38536667Y-36324762D01*
X38631905Y-36229524D01*
X38679524Y-36039048D01*
X38679524Y-35705714D01*
X38631905Y-35515238D01*
X38536667Y-35420000D01*
X38441429Y-35372381D01*
X38250952Y-35372381D01*
X38155714Y-35420000D01*
X38060476Y-35515238D01*
X38012857Y-35705714D01*
X38012857Y-36039048D01*
X38060476Y-36229524D01*
X38155714Y-36324762D01*
X38250952Y-36372381D01*
X38441429Y-36372381D01*
X37679524Y-35372381D02*
X37012857Y-35372381D01*
X37441429Y-36372381D01*
X31845238Y-61086619D02*
X31940476Y-61039000D01*
X32035714Y-60943762D01*
X32178571Y-60800905D01*
X32273810Y-60753286D01*
X32369048Y-60753286D01*
X32321429Y-60991381D02*
X32416667Y-60943762D01*
X32511905Y-60848524D01*
X32559524Y-60658048D01*
X32559524Y-60324714D01*
X32511905Y-60134238D01*
X32416667Y-60039000D01*
X32321429Y-59991381D01*
X32130952Y-59991381D01*
X32035714Y-60039000D01*
X31940476Y-60134238D01*
X31892857Y-60324714D01*
X31892857Y-60658048D01*
X31940476Y-60848524D01*
X32035714Y-60943762D01*
X32130952Y-60991381D01*
X32321429Y-60991381D01*
X31321429Y-60419952D02*
X31416667Y-60372333D01*
X31464286Y-60324714D01*
X31511905Y-60229476D01*
X31511905Y-60181857D01*
X31464286Y-60086619D01*
X31416667Y-60039000D01*
X31321429Y-59991381D01*
X31130952Y-59991381D01*
X31035714Y-60039000D01*
X30988095Y-60086619D01*
X30940476Y-60181857D01*
X30940476Y-60229476D01*
X30988095Y-60324714D01*
X31035714Y-60372333D01*
X31130952Y-60419952D01*
X31321429Y-60419952D01*
X31416667Y-60467571D01*
X31464286Y-60515190D01*
X31511905Y-60610429D01*
X31511905Y-60800905D01*
X31464286Y-60896143D01*
X31416667Y-60943762D01*
X31321429Y-60991381D01*
X31130952Y-60991381D01*
X31035714Y-60943762D01*
X30988095Y-60896143D01*
X30940476Y-60800905D01*
X30940476Y-60610429D01*
X30988095Y-60515190D01*
X31035714Y-60467571D01*
X31130952Y-60419952D01*
D15*
X47205999Y-52612857D02*
X47605999Y-52041429D01*
X47891714Y-52612857D02*
X47891714Y-51412857D01*
X47434571Y-51412857D01*
X47320285Y-51470000D01*
X47263142Y-51527143D01*
X47205999Y-51641429D01*
X47205999Y-51812857D01*
X47263142Y-51927143D01*
X47320285Y-51984286D01*
X47434571Y-52041429D01*
X47891714Y-52041429D01*
X46805999Y-51412857D02*
X46005999Y-51412857D01*
X46520285Y-52612857D01*
X65731999Y-56422857D02*
X66131999Y-55851429D01*
X66417714Y-56422857D02*
X66417714Y-55222857D01*
X65960571Y-55222857D01*
X65846285Y-55280000D01*
X65789142Y-55337143D01*
X65731999Y-55451429D01*
X65731999Y-55622857D01*
X65789142Y-55737143D01*
X65846285Y-55794286D01*
X65960571Y-55851429D01*
X66417714Y-55851429D01*
X65046285Y-55737143D02*
X65160571Y-55680000D01*
X65217714Y-55622857D01*
X65274857Y-55508571D01*
X65274857Y-55451429D01*
X65217714Y-55337143D01*
X65160571Y-55280000D01*
X65046285Y-55222857D01*
X64817714Y-55222857D01*
X64703428Y-55280000D01*
X64646285Y-55337143D01*
X64589142Y-55451429D01*
X64589142Y-55508571D01*
X64646285Y-55622857D01*
X64703428Y-55680000D01*
X64817714Y-55737143D01*
X65046285Y-55737143D01*
X65160571Y-55794286D01*
X65217714Y-55851429D01*
X65274857Y-55965714D01*
X65274857Y-56194286D01*
X65217714Y-56308571D01*
X65160571Y-56365714D01*
X65046285Y-56422857D01*
X64817714Y-56422857D01*
X64703428Y-56365714D01*
X64646285Y-56308571D01*
X64589142Y-56194286D01*
X64589142Y-55965714D01*
X64646285Y-55851429D01*
X64703428Y-55794286D01*
X64817714Y-55737143D01*
X46300999Y-39912857D02*
X46700999Y-39341429D01*
X46986714Y-39912857D02*
X46986714Y-38712857D01*
X46529571Y-38712857D01*
X46415285Y-38770000D01*
X46358142Y-38827143D01*
X46300999Y-38941429D01*
X46300999Y-39112857D01*
X46358142Y-39227143D01*
X46415285Y-39284286D01*
X46529571Y-39341429D01*
X46986714Y-39341429D01*
X45729571Y-39912857D02*
X45500999Y-39912857D01*
X45386714Y-39855714D01*
X45329571Y-39798571D01*
X45215285Y-39627143D01*
X45158142Y-39398571D01*
X45158142Y-38941429D01*
X45215285Y-38827143D01*
X45272428Y-38770000D01*
X45386714Y-38712857D01*
X45615285Y-38712857D01*
X45729571Y-38770000D01*
X45786714Y-38827143D01*
X45843857Y-38941429D01*
X45843857Y-39227143D01*
X45786714Y-39341429D01*
X45729571Y-39398571D01*
X45615285Y-39455714D01*
X45386714Y-39455714D01*
X45272428Y-39398571D01*
X45215285Y-39341429D01*
X45158142Y-39227143D01*
X28838428Y-61502857D02*
X29238428Y-60931429D01*
X29524143Y-61502857D02*
X29524143Y-60302857D01*
X29067000Y-60302857D01*
X28952714Y-60360000D01*
X28895571Y-60417143D01*
X28838428Y-60531429D01*
X28838428Y-60702857D01*
X28895571Y-60817143D01*
X28952714Y-60874286D01*
X29067000Y-60931429D01*
X29524143Y-60931429D01*
X27695571Y-61502857D02*
X28381286Y-61502857D01*
X28038428Y-61502857D02*
X28038428Y-60302857D01*
X28152714Y-60474286D01*
X28267000Y-60588571D01*
X28381286Y-60645714D01*
X26952714Y-60302857D02*
X26838429Y-60302857D01*
X26724143Y-60360000D01*
X26667000Y-60417143D01*
X26609857Y-60531429D01*
X26552714Y-60760000D01*
X26552714Y-61045714D01*
X26609857Y-61274286D01*
X26667000Y-61388571D01*
X26724143Y-61445714D01*
X26838429Y-61502857D01*
X26952714Y-61502857D01*
X27067000Y-61445714D01*
X27124143Y-61388571D01*
X27181286Y-61274286D01*
X27238429Y-61045714D01*
X27238429Y-60760000D01*
X27181286Y-60531429D01*
X27124143Y-60417143D01*
X27067000Y-60360000D01*
X26952714Y-60302857D01*
D14*
X83014286Y-33642857D02*
X83014286Y-34614286D01*
X82957143Y-34728571D01*
X82900000Y-34785714D01*
X82785714Y-34842857D01*
X82557143Y-34842857D01*
X82442857Y-34785714D01*
X82385714Y-34728571D01*
X82328571Y-34614286D01*
X82328571Y-33642857D01*
X81128571Y-34842857D02*
X81814286Y-34842857D01*
X81471428Y-34842857D02*
X81471428Y-33642857D01*
X81585714Y-33814286D01*
X81700000Y-33928571D01*
X81814286Y-33985714D01*
X45214286Y-33642857D02*
X45214286Y-34614286D01*
X45157143Y-34728571D01*
X45100000Y-34785714D01*
X44985714Y-34842857D01*
X44757143Y-34842857D01*
X44642857Y-34785714D01*
X44585714Y-34728571D01*
X44528571Y-34614286D01*
X44528571Y-33642857D01*
X44071428Y-33642857D02*
X43328571Y-33642857D01*
X43728571Y-34100000D01*
X43557143Y-34100000D01*
X43442857Y-34157143D01*
X43385714Y-34214286D01*
X43328571Y-34328571D01*
X43328571Y-34614286D01*
X43385714Y-34728571D01*
X43442857Y-34785714D01*
X43557143Y-34842857D01*
X43900000Y-34842857D01*
X44014286Y-34785714D01*
X44071428Y-34728571D01*
X52649238Y-42370619D02*
X52744476Y-42323000D01*
X52839714Y-42227762D01*
X52982571Y-42084905D01*
X53077810Y-42037286D01*
X53173048Y-42037286D01*
X53125429Y-42275381D02*
X53220667Y-42227762D01*
X53315905Y-42132524D01*
X53363524Y-41942048D01*
X53363524Y-41608714D01*
X53315905Y-41418238D01*
X53220667Y-41323000D01*
X53125429Y-41275381D01*
X52934952Y-41275381D01*
X52839714Y-41323000D01*
X52744476Y-41418238D01*
X52696857Y-41608714D01*
X52696857Y-41942048D01*
X52744476Y-42132524D01*
X52839714Y-42227762D01*
X52934952Y-42275381D01*
X53125429Y-42275381D01*
X51744476Y-42275381D02*
X52315905Y-42275381D01*
X52030191Y-42275381D02*
X52030191Y-41275381D01*
X52125429Y-41418238D01*
X52220667Y-41513476D01*
X52315905Y-41561095D01*
D12*
X41378143Y-59015334D02*
X41425762Y-58967715D01*
X41473381Y-58824858D01*
X41473381Y-58729620D01*
X41425762Y-58586762D01*
X41330524Y-58491524D01*
X41235286Y-58443905D01*
X41044810Y-58396286D01*
X40901952Y-58396286D01*
X40711476Y-58443905D01*
X40616238Y-58491524D01*
X40521000Y-58586762D01*
X40473381Y-58729620D01*
X40473381Y-58824858D01*
X40521000Y-58967715D01*
X40568619Y-59015334D01*
X41473381Y-59967715D02*
X41473381Y-59396286D01*
X41473381Y-59682000D02*
X40473381Y-59682000D01*
X40616238Y-59586762D01*
X40711476Y-59491524D01*
X40759095Y-59396286D01*
M02*
