G04 #@! TF.FileFunction,Legend,Top*
%FSLAX46Y46*%
G04 Gerber Fmt 4.6, Leading zero omitted, Abs format (unit mm)*
G04 Created by KiCad (PCBNEW 4.0.6) date 09/07/17 18:35:35*
%MOMM*%
%LPD*%
G01*
G04 APERTURE LIST*
%ADD10C,0.100000*%
%ADD11C,0.300000*%
%ADD12C,0.160000*%
%ADD13C,0.120000*%
%ADD14C,0.150000*%
%ADD15C,0.200000*%
G04 APERTURE END LIST*
D10*
D11*
X57781715Y-28756571D02*
X57781715Y-29756571D01*
X57781715Y-28899429D02*
X57853143Y-28828000D01*
X57996001Y-28756571D01*
X58210286Y-28756571D01*
X58353143Y-28828000D01*
X58424572Y-28970857D01*
X58424572Y-29756571D01*
X58996001Y-28756571D02*
X59353144Y-29756571D01*
X59710286Y-28756571D02*
X59353144Y-29756571D01*
X59210286Y-30113714D01*
X59138858Y-30185143D01*
X58996001Y-30256571D01*
X60281715Y-29756571D02*
X60281715Y-28756571D01*
X60281715Y-29042286D02*
X60353143Y-28899429D01*
X60424572Y-28828000D01*
X60567429Y-28756571D01*
X60710286Y-28756571D01*
X61424572Y-29756571D02*
X61281714Y-29685143D01*
X61210286Y-29613714D01*
X61138857Y-29470857D01*
X61138857Y-29042286D01*
X61210286Y-28899429D01*
X61281714Y-28828000D01*
X61424572Y-28756571D01*
X61638857Y-28756571D01*
X61781714Y-28828000D01*
X61853143Y-28899429D01*
X61924572Y-29042286D01*
X61924572Y-29470857D01*
X61853143Y-29613714D01*
X61781714Y-29685143D01*
X61638857Y-29756571D01*
X61424572Y-29756571D01*
X62567429Y-28756571D02*
X62567429Y-29756571D01*
X62567429Y-28899429D02*
X62638857Y-28828000D01*
X62781715Y-28756571D01*
X62996000Y-28756571D01*
X63138857Y-28828000D01*
X63210286Y-28970857D01*
X63210286Y-29756571D01*
X64496000Y-29685143D02*
X64353143Y-29756571D01*
X64067429Y-29756571D01*
X63924572Y-29685143D01*
X63853143Y-29542286D01*
X63853143Y-28970857D01*
X63924572Y-28828000D01*
X64067429Y-28756571D01*
X64353143Y-28756571D01*
X64496000Y-28828000D01*
X64567429Y-28970857D01*
X64567429Y-29113714D01*
X63853143Y-29256571D01*
X64996000Y-28756571D02*
X65567429Y-28756571D01*
X65210286Y-28256571D02*
X65210286Y-29542286D01*
X65281714Y-29685143D01*
X65424572Y-29756571D01*
X65567429Y-29756571D01*
X66067429Y-29613714D02*
X66138857Y-29685143D01*
X66067429Y-29756571D01*
X65996000Y-29685143D01*
X66067429Y-29613714D01*
X66067429Y-29756571D01*
X67424572Y-29756571D02*
X67424572Y-28256571D01*
X67424572Y-29685143D02*
X67281715Y-29756571D01*
X66996001Y-29756571D01*
X66853143Y-29685143D01*
X66781715Y-29613714D01*
X66710286Y-29470857D01*
X66710286Y-29042286D01*
X66781715Y-28899429D01*
X66853143Y-28828000D01*
X66996001Y-28756571D01*
X67281715Y-28756571D01*
X67424572Y-28828000D01*
X68710286Y-29685143D02*
X68567429Y-29756571D01*
X68281715Y-29756571D01*
X68138858Y-29685143D01*
X68067429Y-29542286D01*
X68067429Y-28970857D01*
X68138858Y-28828000D01*
X68281715Y-28756571D01*
X68567429Y-28756571D01*
X68710286Y-28828000D01*
X68781715Y-28970857D01*
X68781715Y-29113714D01*
X68067429Y-29256571D01*
X59317429Y-31306571D02*
X59317429Y-32306571D01*
X58960286Y-30735143D02*
X58603143Y-31806571D01*
X59531715Y-31806571D01*
X61174571Y-30735143D02*
X59888857Y-32663714D01*
X62460286Y-32306571D02*
X61603143Y-32306571D01*
X62031715Y-32306571D02*
X62031715Y-30806571D01*
X61888858Y-31020857D01*
X61746000Y-31163714D01*
X61603143Y-31235143D01*
X63103143Y-32163714D02*
X63174571Y-32235143D01*
X63103143Y-32306571D01*
X63031714Y-32235143D01*
X63103143Y-32163714D01*
X63103143Y-32306571D01*
X64103143Y-30806571D02*
X64246000Y-30806571D01*
X64388857Y-30878000D01*
X64460286Y-30949429D01*
X64531715Y-31092286D01*
X64603143Y-31378000D01*
X64603143Y-31735143D01*
X64531715Y-32020857D01*
X64460286Y-32163714D01*
X64388857Y-32235143D01*
X64246000Y-32306571D01*
X64103143Y-32306571D01*
X63960286Y-32235143D01*
X63888857Y-32163714D01*
X63817429Y-32020857D01*
X63746000Y-31735143D01*
X63746000Y-31378000D01*
X63817429Y-31092286D01*
X63888857Y-30949429D01*
X63960286Y-30878000D01*
X64103143Y-30806571D01*
X65246000Y-31735143D02*
X66388857Y-31735143D01*
X67888857Y-32306571D02*
X67031714Y-32306571D01*
X67460286Y-32306571D02*
X67460286Y-30806571D01*
X67317429Y-31020857D01*
X67174571Y-31163714D01*
X67031714Y-31235143D01*
D12*
X51854000Y-39546000D02*
X50254000Y-39546000D01*
X51854000Y-41226000D02*
X50254000Y-41226000D01*
D13*
X86465000Y-35758000D02*
X86465000Y-36688000D01*
X86465000Y-38918000D02*
X86465000Y-37988000D01*
X86465000Y-38918000D02*
X89625000Y-38918000D01*
X86465000Y-35758000D02*
X87925000Y-35758000D01*
X74112000Y-46861000D02*
X75042000Y-46861000D01*
X77272000Y-46861000D02*
X76342000Y-46861000D01*
X77272000Y-46861000D02*
X77272000Y-43701000D01*
X74112000Y-46861000D02*
X74112000Y-45401000D01*
X84985000Y-33330000D02*
X84985000Y-32400000D01*
X84985000Y-30170000D02*
X84985000Y-31100000D01*
X84985000Y-30170000D02*
X81825000Y-30170000D01*
X84985000Y-33330000D02*
X83525000Y-33330000D01*
D12*
X80977000Y-52600000D02*
X80977000Y-51000000D01*
X79297000Y-52600000D02*
X79297000Y-51000000D01*
X33323000Y-49746000D02*
X33323000Y-51346000D01*
X35003000Y-49746000D02*
X35003000Y-51346000D01*
X82120000Y-39932000D02*
X82120000Y-38332000D01*
X80440000Y-39932000D02*
X80440000Y-38332000D01*
X75135000Y-41186000D02*
X75135000Y-39586000D01*
X73455000Y-41186000D02*
X73455000Y-39586000D01*
X75857000Y-30021000D02*
X74257000Y-30021000D01*
X75857000Y-31701000D02*
X74257000Y-31701000D01*
D14*
X84836000Y-53213000D02*
X84836000Y-52451000D01*
X84836000Y-52451000D02*
X86360000Y-52451000D01*
X86360000Y-52451000D02*
X86360000Y-53213000D01*
X83312000Y-42037000D02*
X87884000Y-42037000D01*
X87884000Y-42037000D02*
X87884000Y-53213000D01*
X87884000Y-53213000D02*
X83312000Y-53213000D01*
X83312000Y-53213000D02*
X83312000Y-42037000D01*
X39116000Y-53975000D02*
X39116000Y-53213000D01*
X39116000Y-53213000D02*
X40640000Y-53213000D01*
X40640000Y-53213000D02*
X40640000Y-53975000D01*
X37592000Y-42799000D02*
X42164000Y-42799000D01*
X42164000Y-42799000D02*
X42164000Y-53975000D01*
X42164000Y-53975000D02*
X37592000Y-53975000D01*
X37592000Y-53975000D02*
X37592000Y-42799000D01*
X51504000Y-28140000D02*
X50504000Y-27140000D01*
X50504000Y-27140000D02*
X43104000Y-27140000D01*
X43104000Y-27140000D02*
X43104000Y-37630000D01*
X43104000Y-37630000D02*
X51504000Y-37630000D01*
X51504000Y-37630000D02*
X51504000Y-28140000D01*
D12*
X39281000Y-32815000D02*
X37681000Y-32815000D01*
X39281000Y-34495000D02*
X37681000Y-34495000D01*
X84798000Y-55196000D02*
X86398000Y-55196000D01*
X84798000Y-53516000D02*
X86398000Y-53516000D01*
X39221000Y-55577000D02*
X40821000Y-55577000D01*
X39221000Y-53897000D02*
X40821000Y-53897000D01*
X55521000Y-27100000D02*
X53921000Y-27100000D01*
X55521000Y-28780000D02*
X53921000Y-28780000D01*
D15*
X47679001Y-40928857D02*
X47279001Y-40357429D01*
X46993286Y-40928857D02*
X46993286Y-39728857D01*
X47450429Y-39728857D01*
X47564715Y-39786000D01*
X47621858Y-39843143D01*
X47679001Y-39957429D01*
X47679001Y-40128857D01*
X47621858Y-40243143D01*
X47564715Y-40300286D01*
X47450429Y-40357429D01*
X46993286Y-40357429D01*
X48079001Y-39728857D02*
X48821858Y-39728857D01*
X48421858Y-40186000D01*
X48593286Y-40186000D01*
X48707572Y-40243143D01*
X48764715Y-40300286D01*
X48821858Y-40414571D01*
X48821858Y-40700286D01*
X48764715Y-40814571D01*
X48707572Y-40871714D01*
X48593286Y-40928857D01*
X48250429Y-40928857D01*
X48136143Y-40871714D01*
X48079001Y-40814571D01*
D14*
X86772762Y-40806619D02*
X86677524Y-40759000D01*
X86582286Y-40663762D01*
X86439429Y-40520905D01*
X86344190Y-40473286D01*
X86248952Y-40473286D01*
X86296571Y-40711381D02*
X86201333Y-40663762D01*
X86106095Y-40568524D01*
X86058476Y-40378048D01*
X86058476Y-40044714D01*
X86106095Y-39854238D01*
X86201333Y-39759000D01*
X86296571Y-39711381D01*
X86487048Y-39711381D01*
X86582286Y-39759000D01*
X86677524Y-39854238D01*
X86725143Y-40044714D01*
X86725143Y-40378048D01*
X86677524Y-40568524D01*
X86582286Y-40663762D01*
X86487048Y-40711381D01*
X86296571Y-40711381D01*
X87106095Y-39806619D02*
X87153714Y-39759000D01*
X87248952Y-39711381D01*
X87487048Y-39711381D01*
X87582286Y-39759000D01*
X87629905Y-39806619D01*
X87677524Y-39901857D01*
X87677524Y-39997095D01*
X87629905Y-40139952D01*
X87058476Y-40711381D01*
X87677524Y-40711381D01*
X79033619Y-45942238D02*
X78986000Y-46037476D01*
X78890762Y-46132714D01*
X78747905Y-46275571D01*
X78700286Y-46370810D01*
X78700286Y-46466048D01*
X78938381Y-46418429D02*
X78890762Y-46513667D01*
X78795524Y-46608905D01*
X78605048Y-46656524D01*
X78271714Y-46656524D01*
X78081238Y-46608905D01*
X77986000Y-46513667D01*
X77938381Y-46418429D01*
X77938381Y-46227952D01*
X77986000Y-46132714D01*
X78081238Y-46037476D01*
X78271714Y-45989857D01*
X78605048Y-45989857D01*
X78795524Y-46037476D01*
X78890762Y-46132714D01*
X78938381Y-46227952D01*
X78938381Y-46418429D01*
X77938381Y-45656524D02*
X77938381Y-45037476D01*
X78319333Y-45370810D01*
X78319333Y-45227952D01*
X78366952Y-45132714D01*
X78414571Y-45085095D01*
X78509810Y-45037476D01*
X78747905Y-45037476D01*
X78843143Y-45085095D01*
X78890762Y-45132714D01*
X78938381Y-45227952D01*
X78938381Y-45513667D01*
X78890762Y-45608905D01*
X78843143Y-45656524D01*
X84129762Y-29630619D02*
X84034524Y-29583000D01*
X83939286Y-29487762D01*
X83796429Y-29344905D01*
X83701190Y-29297286D01*
X83605952Y-29297286D01*
X83653571Y-29535381D02*
X83558333Y-29487762D01*
X83463095Y-29392524D01*
X83415476Y-29202048D01*
X83415476Y-28868714D01*
X83463095Y-28678238D01*
X83558333Y-28583000D01*
X83653571Y-28535381D01*
X83844048Y-28535381D01*
X83939286Y-28583000D01*
X84034524Y-28678238D01*
X84082143Y-28868714D01*
X84082143Y-29202048D01*
X84034524Y-29392524D01*
X83939286Y-29487762D01*
X83844048Y-29535381D01*
X83653571Y-29535381D01*
X84939286Y-28868714D02*
X84939286Y-29535381D01*
X84701190Y-28487762D02*
X84463095Y-29202048D01*
X85082143Y-29202048D01*
D15*
X80171857Y-48840999D02*
X79600429Y-49240999D01*
X80171857Y-49526714D02*
X78971857Y-49526714D01*
X78971857Y-49069571D01*
X79029000Y-48955285D01*
X79086143Y-48898142D01*
X79200429Y-48840999D01*
X79371857Y-48840999D01*
X79486143Y-48898142D01*
X79543286Y-48955285D01*
X79600429Y-49069571D01*
X79600429Y-49526714D01*
X80171857Y-47698142D02*
X80171857Y-48383857D01*
X80171857Y-48040999D02*
X78971857Y-48040999D01*
X79143286Y-48155285D01*
X79257571Y-48269571D01*
X79314714Y-48383857D01*
X34705857Y-54174999D02*
X34134429Y-54574999D01*
X34705857Y-54860714D02*
X33505857Y-54860714D01*
X33505857Y-54403571D01*
X33563000Y-54289285D01*
X33620143Y-54232142D01*
X33734429Y-54174999D01*
X33905857Y-54174999D01*
X34020143Y-54232142D01*
X34077286Y-54289285D01*
X34134429Y-54403571D01*
X34134429Y-54860714D01*
X33620143Y-53717857D02*
X33563000Y-53660714D01*
X33505857Y-53546428D01*
X33505857Y-53260714D01*
X33563000Y-53146428D01*
X33620143Y-53089285D01*
X33734429Y-53032142D01*
X33848714Y-53032142D01*
X34020143Y-53089285D01*
X34705857Y-53774999D01*
X34705857Y-53032142D01*
X80044857Y-39315999D02*
X79473429Y-39715999D01*
X80044857Y-40001714D02*
X78844857Y-40001714D01*
X78844857Y-39544571D01*
X78902000Y-39430285D01*
X78959143Y-39373142D01*
X79073429Y-39315999D01*
X79244857Y-39315999D01*
X79359143Y-39373142D01*
X79416286Y-39430285D01*
X79473429Y-39544571D01*
X79473429Y-40001714D01*
X79244857Y-38287428D02*
X80044857Y-38287428D01*
X78787714Y-38573142D02*
X79644857Y-38858857D01*
X79644857Y-38115999D01*
X74837857Y-37156999D02*
X74266429Y-37556999D01*
X74837857Y-37842714D02*
X73637857Y-37842714D01*
X73637857Y-37385571D01*
X73695000Y-37271285D01*
X73752143Y-37214142D01*
X73866429Y-37156999D01*
X74037857Y-37156999D01*
X74152143Y-37214142D01*
X74209286Y-37271285D01*
X74266429Y-37385571D01*
X74266429Y-37842714D01*
X73637857Y-36071285D02*
X73637857Y-36642714D01*
X74209286Y-36699857D01*
X74152143Y-36642714D01*
X74095000Y-36528428D01*
X74095000Y-36242714D01*
X74152143Y-36128428D01*
X74209286Y-36071285D01*
X74323571Y-36014142D01*
X74609286Y-36014142D01*
X74723571Y-36071285D01*
X74780714Y-36128428D01*
X74837857Y-36242714D01*
X74837857Y-36528428D01*
X74780714Y-36642714D01*
X74723571Y-36699857D01*
X74857001Y-29625857D02*
X74457001Y-29054429D01*
X74171286Y-29625857D02*
X74171286Y-28425857D01*
X74628429Y-28425857D01*
X74742715Y-28483000D01*
X74799858Y-28540143D01*
X74857001Y-28654429D01*
X74857001Y-28825857D01*
X74799858Y-28940143D01*
X74742715Y-28997286D01*
X74628429Y-29054429D01*
X74171286Y-29054429D01*
X75885572Y-28425857D02*
X75657001Y-28425857D01*
X75542715Y-28483000D01*
X75485572Y-28540143D01*
X75371286Y-28711571D01*
X75314143Y-28940143D01*
X75314143Y-29397286D01*
X75371286Y-29511571D01*
X75428429Y-29568714D01*
X75542715Y-29625857D01*
X75771286Y-29625857D01*
X75885572Y-29568714D01*
X75942715Y-29511571D01*
X75999858Y-29397286D01*
X75999858Y-29111571D01*
X75942715Y-28997286D01*
X75885572Y-28940143D01*
X75771286Y-28883000D01*
X75542715Y-28883000D01*
X75428429Y-28940143D01*
X75371286Y-28997286D01*
X75314143Y-29111571D01*
D14*
X85431381Y-51180905D02*
X86240905Y-51180905D01*
X86336143Y-51133286D01*
X86383762Y-51085667D01*
X86431381Y-50990429D01*
X86431381Y-50799952D01*
X86383762Y-50704714D01*
X86336143Y-50657095D01*
X86240905Y-50609476D01*
X85431381Y-50609476D01*
X85526619Y-50180905D02*
X85479000Y-50133286D01*
X85431381Y-50038048D01*
X85431381Y-49799952D01*
X85479000Y-49704714D01*
X85526619Y-49657095D01*
X85621857Y-49609476D01*
X85717095Y-49609476D01*
X85859952Y-49657095D01*
X86431381Y-50228524D01*
X86431381Y-49609476D01*
X39457381Y-51942905D02*
X40266905Y-51942905D01*
X40362143Y-51895286D01*
X40409762Y-51847667D01*
X40457381Y-51752429D01*
X40457381Y-51561952D01*
X40409762Y-51466714D01*
X40362143Y-51419095D01*
X40266905Y-51371476D01*
X39457381Y-51371476D01*
X39790714Y-50466714D02*
X40457381Y-50466714D01*
X39409762Y-50704810D02*
X40124048Y-50942905D01*
X40124048Y-50323857D01*
X46646857Y-33426286D02*
X47618286Y-33426286D01*
X47732571Y-33369143D01*
X47789714Y-33312000D01*
X47846857Y-33197714D01*
X47846857Y-32969143D01*
X47789714Y-32854857D01*
X47732571Y-32797714D01*
X47618286Y-32740571D01*
X46646857Y-32740571D01*
X46646857Y-31597714D02*
X46646857Y-32169143D01*
X47218286Y-32226286D01*
X47161143Y-32169143D01*
X47104000Y-32054857D01*
X47104000Y-31769143D01*
X47161143Y-31654857D01*
X47218286Y-31597714D01*
X47332571Y-31540571D01*
X47618286Y-31540571D01*
X47732571Y-31597714D01*
X47789714Y-31654857D01*
X47846857Y-31769143D01*
X47846857Y-32054857D01*
X47789714Y-32169143D01*
X47732571Y-32226286D01*
D15*
X34026572Y-34197857D02*
X33626572Y-33626429D01*
X33340857Y-34197857D02*
X33340857Y-32997857D01*
X33798000Y-32997857D01*
X33912286Y-33055000D01*
X33969429Y-33112143D01*
X34026572Y-33226429D01*
X34026572Y-33397857D01*
X33969429Y-33512143D01*
X33912286Y-33569286D01*
X33798000Y-33626429D01*
X33340857Y-33626429D01*
X35169429Y-34197857D02*
X34483714Y-34197857D01*
X34826572Y-34197857D02*
X34826572Y-32997857D01*
X34712286Y-33169286D01*
X34598000Y-33283571D01*
X34483714Y-33340714D01*
X36312286Y-34197857D02*
X35626571Y-34197857D01*
X35969429Y-34197857D02*
X35969429Y-32997857D01*
X35855143Y-33169286D01*
X35740857Y-33283571D01*
X35626571Y-33340714D01*
X88827001Y-55927571D02*
X88769858Y-55984714D01*
X88598429Y-56041857D01*
X88484143Y-56041857D01*
X88312715Y-55984714D01*
X88198429Y-55870429D01*
X88141286Y-55756143D01*
X88084143Y-55527571D01*
X88084143Y-55356143D01*
X88141286Y-55127571D01*
X88198429Y-55013286D01*
X88312715Y-54899000D01*
X88484143Y-54841857D01*
X88598429Y-54841857D01*
X88769858Y-54899000D01*
X88827001Y-54956143D01*
X89284143Y-54956143D02*
X89341286Y-54899000D01*
X89455572Y-54841857D01*
X89741286Y-54841857D01*
X89855572Y-54899000D01*
X89912715Y-54956143D01*
X89969858Y-55070429D01*
X89969858Y-55184714D01*
X89912715Y-55356143D01*
X89227001Y-56041857D01*
X89969858Y-56041857D01*
X43361001Y-55927571D02*
X43303858Y-55984714D01*
X43132429Y-56041857D01*
X43018143Y-56041857D01*
X42846715Y-55984714D01*
X42732429Y-55870429D01*
X42675286Y-55756143D01*
X42618143Y-55527571D01*
X42618143Y-55356143D01*
X42675286Y-55127571D01*
X42732429Y-55013286D01*
X42846715Y-54899000D01*
X43018143Y-54841857D01*
X43132429Y-54841857D01*
X43303858Y-54899000D01*
X43361001Y-54956143D01*
X43761001Y-54841857D02*
X44503858Y-54841857D01*
X44103858Y-55299000D01*
X44275286Y-55299000D01*
X44389572Y-55356143D01*
X44446715Y-55413286D01*
X44503858Y-55527571D01*
X44503858Y-55813286D01*
X44446715Y-55927571D01*
X44389572Y-55984714D01*
X44275286Y-56041857D01*
X43932429Y-56041857D01*
X43818143Y-55984714D01*
X43761001Y-55927571D01*
X55172001Y-31162571D02*
X55114858Y-31219714D01*
X54943429Y-31276857D01*
X54829143Y-31276857D01*
X54657715Y-31219714D01*
X54543429Y-31105429D01*
X54486286Y-30991143D01*
X54429143Y-30762571D01*
X54429143Y-30591143D01*
X54486286Y-30362571D01*
X54543429Y-30248286D01*
X54657715Y-30134000D01*
X54829143Y-30076857D01*
X54943429Y-30076857D01*
X55114858Y-30134000D01*
X55172001Y-30191143D01*
X56200572Y-30476857D02*
X56200572Y-31276857D01*
X55914858Y-30019714D02*
X55629143Y-30876857D01*
X56372001Y-30876857D01*
M02*
