G04 #@! TF.FileFunction,Legend,Bot*
%FSLAX46Y46*%
G04 Gerber Fmt 4.6, Leading zero omitted, Abs format (unit mm)*
G04 Created by KiCad (PCBNEW 4.0.6) date 09/07/17 18:35:35*
%MOMM*%
%LPD*%
G01*
G04 APERTURE LIST*
%ADD10C,0.100000*%
%ADD11C,0.120000*%
%ADD12C,0.160000*%
%ADD13C,1.000000*%
%ADD14C,0.150000*%
%ADD15C,0.200000*%
G04 APERTURE END LIST*
D10*
D11*
X53314000Y-47630000D02*
X53314000Y-48560000D01*
X53314000Y-50790000D02*
X53314000Y-49860000D01*
X53314000Y-50790000D02*
X50154000Y-50790000D01*
X53314000Y-47630000D02*
X51854000Y-47630000D01*
X75920000Y-52710000D02*
X75920000Y-53640000D01*
X75920000Y-55870000D02*
X75920000Y-54940000D01*
X75920000Y-55870000D02*
X72760000Y-55870000D01*
X75920000Y-52710000D02*
X74460000Y-52710000D01*
X37110000Y-40000000D02*
X37110000Y-39070000D01*
X37110000Y-36840000D02*
X37110000Y-37770000D01*
X37110000Y-36840000D02*
X40270000Y-36840000D01*
X37110000Y-40000000D02*
X38570000Y-40000000D01*
X32510000Y-56459000D02*
X32510000Y-57389000D01*
X32510000Y-59619000D02*
X32510000Y-58689000D01*
X32510000Y-59619000D02*
X29350000Y-59619000D01*
X32510000Y-56459000D02*
X31050000Y-56459000D01*
D12*
X50854000Y-52910000D02*
X49254000Y-52910000D01*
X50854000Y-51230000D02*
X49254000Y-51230000D01*
X69380000Y-56720000D02*
X67780000Y-56720000D01*
X69380000Y-55040000D02*
X67780000Y-55040000D01*
X42253000Y-38530000D02*
X43853000Y-38530000D01*
X42253000Y-40210000D02*
X43853000Y-40210000D01*
X31915000Y-61800000D02*
X30315000Y-61800000D01*
X31915000Y-60120000D02*
X30315000Y-60120000D01*
D13*
X99100000Y-41300000D02*
X99100000Y-47300000D01*
D14*
X101000000Y-25400000D02*
X101000000Y-63200000D01*
X101000000Y-63200000D02*
X63200000Y-63200000D01*
X63200000Y-63200000D02*
X63200000Y-25400000D01*
X63200000Y-25400000D02*
X101000000Y-25400000D01*
D13*
X61300000Y-41300000D02*
X61300000Y-47300000D01*
D14*
X63200000Y-25400000D02*
X63200000Y-63200000D01*
X63200000Y-63200000D02*
X25400000Y-63200000D01*
X25400000Y-63200000D02*
X25400000Y-25400000D01*
X25400000Y-25400000D02*
X63200000Y-25400000D01*
D11*
X51794000Y-45903000D02*
X51794000Y-44973000D01*
X51794000Y-42743000D02*
X51794000Y-43673000D01*
X51794000Y-42743000D02*
X54954000Y-42743000D01*
X51794000Y-45903000D02*
X53254000Y-45903000D01*
D12*
X44069000Y-58182000D02*
X44069000Y-60182000D01*
X41783000Y-58182000D02*
X41783000Y-60182000D01*
D14*
X53562238Y-52871619D02*
X53657476Y-52824000D01*
X53752714Y-52728762D01*
X53895571Y-52585905D01*
X53990810Y-52538286D01*
X54086048Y-52538286D01*
X54038429Y-52776381D02*
X54133667Y-52728762D01*
X54228905Y-52633524D01*
X54276524Y-52443048D01*
X54276524Y-52109714D01*
X54228905Y-51919238D01*
X54133667Y-51824000D01*
X54038429Y-51776381D01*
X53847952Y-51776381D01*
X53752714Y-51824000D01*
X53657476Y-51919238D01*
X53609857Y-52109714D01*
X53609857Y-52443048D01*
X53657476Y-52633524D01*
X53752714Y-52728762D01*
X53847952Y-52776381D01*
X54038429Y-52776381D01*
X52705095Y-51776381D02*
X53181286Y-51776381D01*
X53228905Y-52252571D01*
X53181286Y-52204952D01*
X53086048Y-52157333D01*
X52847952Y-52157333D01*
X52752714Y-52204952D01*
X52705095Y-52252571D01*
X52657476Y-52347810D01*
X52657476Y-52585905D01*
X52705095Y-52681143D01*
X52752714Y-52728762D01*
X52847952Y-52776381D01*
X53086048Y-52776381D01*
X53181286Y-52728762D01*
X53228905Y-52681143D01*
X75152238Y-57570619D02*
X75247476Y-57523000D01*
X75342714Y-57427762D01*
X75485571Y-57284905D01*
X75580810Y-57237286D01*
X75676048Y-57237286D01*
X75628429Y-57475381D02*
X75723667Y-57427762D01*
X75818905Y-57332524D01*
X75866524Y-57142048D01*
X75866524Y-56808714D01*
X75818905Y-56618238D01*
X75723667Y-56523000D01*
X75628429Y-56475381D01*
X75437952Y-56475381D01*
X75342714Y-56523000D01*
X75247476Y-56618238D01*
X75199857Y-56808714D01*
X75199857Y-57142048D01*
X75247476Y-57332524D01*
X75342714Y-57427762D01*
X75437952Y-57475381D01*
X75628429Y-57475381D01*
X74342714Y-56475381D02*
X74533191Y-56475381D01*
X74628429Y-56523000D01*
X74676048Y-56570619D01*
X74771286Y-56713476D01*
X74818905Y-56903952D01*
X74818905Y-57284905D01*
X74771286Y-57380143D01*
X74723667Y-57427762D01*
X74628429Y-57475381D01*
X74437952Y-57475381D01*
X74342714Y-57427762D01*
X74295095Y-57380143D01*
X74247476Y-57284905D01*
X74247476Y-57046810D01*
X74295095Y-56951571D01*
X74342714Y-56903952D01*
X74437952Y-56856333D01*
X74628429Y-56856333D01*
X74723667Y-56903952D01*
X74771286Y-56951571D01*
X74818905Y-57046810D01*
X37941238Y-41568619D02*
X38036476Y-41521000D01*
X38131714Y-41425762D01*
X38274571Y-41282905D01*
X38369810Y-41235286D01*
X38465048Y-41235286D01*
X38417429Y-41473381D02*
X38512667Y-41425762D01*
X38607905Y-41330524D01*
X38655524Y-41140048D01*
X38655524Y-40806714D01*
X38607905Y-40616238D01*
X38512667Y-40521000D01*
X38417429Y-40473381D01*
X38226952Y-40473381D01*
X38131714Y-40521000D01*
X38036476Y-40616238D01*
X37988857Y-40806714D01*
X37988857Y-41140048D01*
X38036476Y-41330524D01*
X38131714Y-41425762D01*
X38226952Y-41473381D01*
X38417429Y-41473381D01*
X37655524Y-40473381D02*
X36988857Y-40473381D01*
X37417429Y-41473381D01*
X31845238Y-55919619D02*
X31940476Y-55872000D01*
X32035714Y-55776762D01*
X32178571Y-55633905D01*
X32273810Y-55586286D01*
X32369048Y-55586286D01*
X32321429Y-55824381D02*
X32416667Y-55776762D01*
X32511905Y-55681524D01*
X32559524Y-55491048D01*
X32559524Y-55157714D01*
X32511905Y-54967238D01*
X32416667Y-54872000D01*
X32321429Y-54824381D01*
X32130952Y-54824381D01*
X32035714Y-54872000D01*
X31940476Y-54967238D01*
X31892857Y-55157714D01*
X31892857Y-55491048D01*
X31940476Y-55681524D01*
X32035714Y-55776762D01*
X32130952Y-55824381D01*
X32321429Y-55824381D01*
X31321429Y-55252952D02*
X31416667Y-55205333D01*
X31464286Y-55157714D01*
X31511905Y-55062476D01*
X31511905Y-55014857D01*
X31464286Y-54919619D01*
X31416667Y-54872000D01*
X31321429Y-54824381D01*
X31130952Y-54824381D01*
X31035714Y-54872000D01*
X30988095Y-54919619D01*
X30940476Y-55014857D01*
X30940476Y-55062476D01*
X30988095Y-55157714D01*
X31035714Y-55205333D01*
X31130952Y-55252952D01*
X31321429Y-55252952D01*
X31416667Y-55300571D01*
X31464286Y-55348190D01*
X31511905Y-55443429D01*
X31511905Y-55633905D01*
X31464286Y-55729143D01*
X31416667Y-55776762D01*
X31321429Y-55824381D01*
X31130952Y-55824381D01*
X31035714Y-55776762D01*
X30988095Y-55729143D01*
X30940476Y-55633905D01*
X30940476Y-55443429D01*
X30988095Y-55348190D01*
X31035714Y-55300571D01*
X31130952Y-55252952D01*
D15*
X46935999Y-52866857D02*
X47335999Y-52295429D01*
X47621714Y-52866857D02*
X47621714Y-51666857D01*
X47164571Y-51666857D01*
X47050285Y-51724000D01*
X46993142Y-51781143D01*
X46935999Y-51895429D01*
X46935999Y-52066857D01*
X46993142Y-52181143D01*
X47050285Y-52238286D01*
X47164571Y-52295429D01*
X47621714Y-52295429D01*
X46535999Y-51666857D02*
X45735999Y-51666857D01*
X46250285Y-52866857D01*
X65350999Y-56930857D02*
X65750999Y-56359429D01*
X66036714Y-56930857D02*
X66036714Y-55730857D01*
X65579571Y-55730857D01*
X65465285Y-55788000D01*
X65408142Y-55845143D01*
X65350999Y-55959429D01*
X65350999Y-56130857D01*
X65408142Y-56245143D01*
X65465285Y-56302286D01*
X65579571Y-56359429D01*
X66036714Y-56359429D01*
X64665285Y-56245143D02*
X64779571Y-56188000D01*
X64836714Y-56130857D01*
X64893857Y-56016571D01*
X64893857Y-55959429D01*
X64836714Y-55845143D01*
X64779571Y-55788000D01*
X64665285Y-55730857D01*
X64436714Y-55730857D01*
X64322428Y-55788000D01*
X64265285Y-55845143D01*
X64208142Y-55959429D01*
X64208142Y-56016571D01*
X64265285Y-56130857D01*
X64322428Y-56188000D01*
X64436714Y-56245143D01*
X64665285Y-56245143D01*
X64779571Y-56302286D01*
X64836714Y-56359429D01*
X64893857Y-56473714D01*
X64893857Y-56702286D01*
X64836714Y-56816571D01*
X64779571Y-56873714D01*
X64665285Y-56930857D01*
X64436714Y-56930857D01*
X64322428Y-56873714D01*
X64265285Y-56816571D01*
X64208142Y-56702286D01*
X64208142Y-56473714D01*
X64265285Y-56359429D01*
X64322428Y-56302286D01*
X64436714Y-56245143D01*
X46681999Y-39912857D02*
X47081999Y-39341429D01*
X47367714Y-39912857D02*
X47367714Y-38712857D01*
X46910571Y-38712857D01*
X46796285Y-38770000D01*
X46739142Y-38827143D01*
X46681999Y-38941429D01*
X46681999Y-39112857D01*
X46739142Y-39227143D01*
X46796285Y-39284286D01*
X46910571Y-39341429D01*
X47367714Y-39341429D01*
X46110571Y-39912857D02*
X45881999Y-39912857D01*
X45767714Y-39855714D01*
X45710571Y-39798571D01*
X45596285Y-39627143D01*
X45539142Y-39398571D01*
X45539142Y-38941429D01*
X45596285Y-38827143D01*
X45653428Y-38770000D01*
X45767714Y-38712857D01*
X45996285Y-38712857D01*
X46110571Y-38770000D01*
X46167714Y-38827143D01*
X46224857Y-38941429D01*
X46224857Y-39227143D01*
X46167714Y-39341429D01*
X46110571Y-39398571D01*
X45996285Y-39455714D01*
X45767714Y-39455714D01*
X45653428Y-39398571D01*
X45596285Y-39341429D01*
X45539142Y-39227143D01*
X28482857Y-59172572D02*
X27911429Y-58772572D01*
X28482857Y-58486857D02*
X27282857Y-58486857D01*
X27282857Y-58944000D01*
X27340000Y-59058286D01*
X27397143Y-59115429D01*
X27511429Y-59172572D01*
X27682857Y-59172572D01*
X27797143Y-59115429D01*
X27854286Y-59058286D01*
X27911429Y-58944000D01*
X27911429Y-58486857D01*
X28482857Y-60315429D02*
X28482857Y-59629714D01*
X28482857Y-59972572D02*
X27282857Y-59972572D01*
X27454286Y-59858286D01*
X27568571Y-59744000D01*
X27625714Y-59629714D01*
X27282857Y-61058286D02*
X27282857Y-61172571D01*
X27340000Y-61286857D01*
X27397143Y-61344000D01*
X27511429Y-61401143D01*
X27740000Y-61458286D01*
X28025714Y-61458286D01*
X28254286Y-61401143D01*
X28368571Y-61344000D01*
X28425714Y-61286857D01*
X28482857Y-61172571D01*
X28482857Y-61058286D01*
X28425714Y-60944000D01*
X28368571Y-60886857D01*
X28254286Y-60829714D01*
X28025714Y-60772571D01*
X27740000Y-60772571D01*
X27511429Y-60829714D01*
X27397143Y-60886857D01*
X27340000Y-60944000D01*
X27282857Y-61058286D01*
D14*
X54578238Y-42330619D02*
X54673476Y-42283000D01*
X54768714Y-42187762D01*
X54911571Y-42044905D01*
X55006810Y-41997286D01*
X55102048Y-41997286D01*
X55054429Y-42235381D02*
X55149667Y-42187762D01*
X55244905Y-42092524D01*
X55292524Y-41902048D01*
X55292524Y-41568714D01*
X55244905Y-41378238D01*
X55149667Y-41283000D01*
X55054429Y-41235381D01*
X54863952Y-41235381D01*
X54768714Y-41283000D01*
X54673476Y-41378238D01*
X54625857Y-41568714D01*
X54625857Y-41902048D01*
X54673476Y-42092524D01*
X54768714Y-42187762D01*
X54863952Y-42235381D01*
X55054429Y-42235381D01*
X53673476Y-42235381D02*
X54244905Y-42235381D01*
X53959191Y-42235381D02*
X53959191Y-41235381D01*
X54054429Y-41378238D01*
X54149667Y-41473476D01*
X54244905Y-41521095D01*
D12*
X45442143Y-59015334D02*
X45489762Y-58967715D01*
X45537381Y-58824858D01*
X45537381Y-58729620D01*
X45489762Y-58586762D01*
X45394524Y-58491524D01*
X45299286Y-58443905D01*
X45108810Y-58396286D01*
X44965952Y-58396286D01*
X44775476Y-58443905D01*
X44680238Y-58491524D01*
X44585000Y-58586762D01*
X44537381Y-58729620D01*
X44537381Y-58824858D01*
X44585000Y-58967715D01*
X44632619Y-59015334D01*
X45537381Y-59967715D02*
X45537381Y-59396286D01*
X45537381Y-59682000D02*
X44537381Y-59682000D01*
X44680238Y-59586762D01*
X44775476Y-59491524D01*
X44823095Y-59396286D01*
M02*
