G04 #@! TF.FileFunction,Copper,L2,Bot,Signal*
%FSLAX46Y46*%
G04 Gerber Fmt 4.6, Leading zero omitted, Abs format (unit mm)*
G04 Created by KiCad (PCBNEW 4.0.6) date 09/03/17 13:59:48*
%MOMM*%
%LPD*%
G01*
G04 APERTURE LIST*
%ADD10C,0.100000*%
%ADD11R,1.900000X0.800000*%
%ADD12R,1.200000X0.900000*%
%ADD13O,2.000000X1.200000*%
%ADD14C,1.700000*%
%ADD15R,1.300000X1.600000*%
%ADD16C,0.800000*%
%ADD17C,0.600000*%
%ADD18C,1.000000*%
%ADD19C,0.400000*%
%ADD20C,0.250000*%
G04 APERTURE END LIST*
D10*
D11*
X51054000Y-50160000D03*
X51054000Y-48260000D03*
X54054000Y-49210000D03*
X73660000Y-55240000D03*
X73660000Y-53340000D03*
X76660000Y-54290000D03*
X39370000Y-37470000D03*
X39370000Y-39370000D03*
X36370000Y-38420000D03*
X30250000Y-58989000D03*
X30250000Y-57089000D03*
X33250000Y-58039000D03*
D12*
X51054000Y-52070000D03*
X49054000Y-52070000D03*
X69580000Y-55880000D03*
X67580000Y-55880000D03*
X42053000Y-39370000D03*
X44053000Y-39370000D03*
X32115000Y-60960000D03*
X30115000Y-60960000D03*
D13*
X68130000Y-35410000D03*
X96070000Y-35410000D03*
X68130000Y-37950000D03*
X96070000Y-37950000D03*
X68130000Y-40490000D03*
X96070000Y-40490000D03*
X68130000Y-43030000D03*
X96070000Y-43030000D03*
X68130000Y-45570000D03*
X96070000Y-45570000D03*
X68130000Y-48110000D03*
X96070000Y-48110000D03*
X68130000Y-50650000D03*
X96070000Y-50650000D03*
X68130000Y-53190000D03*
X96070000Y-53190000D03*
X30330000Y-35410000D03*
X58270000Y-35410000D03*
X30330000Y-37950000D03*
X58270000Y-37950000D03*
X30330000Y-40490000D03*
X58270000Y-40490000D03*
X30330000Y-43030000D03*
X58270000Y-43030000D03*
X30330000Y-45570000D03*
X58270000Y-45570000D03*
X30330000Y-48110000D03*
X58270000Y-48110000D03*
X30330000Y-50650000D03*
X58270000Y-50650000D03*
X30330000Y-53190000D03*
X58270000Y-53190000D03*
D14*
X39116000Y-27940000D03*
X39116000Y-30480000D03*
X36576000Y-27940000D03*
X36576000Y-30480000D03*
X39116000Y-57912000D03*
X39116000Y-60452000D03*
X36576000Y-57912000D03*
X36576000Y-60452000D03*
X96774000Y-57912000D03*
X96774000Y-60452000D03*
X94234000Y-57912000D03*
X94234000Y-60452000D03*
X96774000Y-27940000D03*
X96774000Y-30480000D03*
X94234000Y-27940000D03*
X94234000Y-30480000D03*
D11*
X54054000Y-43373000D03*
X54054000Y-45273000D03*
X51054000Y-44323000D03*
D15*
X42926000Y-57982000D03*
X42926000Y-60382000D03*
D16*
X60960000Y-59055000D03*
X75692000Y-59055000D03*
X84582000Y-56769000D03*
X60960000Y-29464000D03*
X53721000Y-29464000D03*
X54102000Y-56769000D03*
X54102000Y-50673000D03*
X39878000Y-44323000D03*
X39116000Y-35560000D03*
X62230000Y-59182000D03*
X80137000Y-59436000D03*
X86614000Y-59436000D03*
X54610000Y-37973000D03*
X44704000Y-37973000D03*
X38100000Y-49022000D03*
X40132000Y-49022000D03*
D17*
X47117000Y-30480000D03*
X45720000Y-62230000D03*
X47117000Y-42545000D03*
X34290000Y-42672000D03*
X38227000Y-50292000D03*
X32512000Y-50419000D03*
X52070000Y-42545000D03*
X88773000Y-40132000D03*
X82931000Y-40132000D03*
D16*
X73152000Y-48514000D03*
X80010000Y-32766000D03*
D17*
X52451000Y-30480000D03*
X64389000Y-30480000D03*
X53594000Y-35179000D03*
X64770000Y-35560000D03*
X52451000Y-33020000D03*
X72263000Y-30861000D03*
X48895000Y-50800000D03*
X52451000Y-34290000D03*
X47244000Y-34290000D03*
X55245000Y-55880000D03*
X52070000Y-38989000D03*
X42672000Y-35560000D03*
X28829000Y-33020000D03*
X27940000Y-50800000D03*
X71501000Y-46228000D03*
X80518000Y-46228000D03*
X91694000Y-41910000D03*
X86614000Y-43053000D03*
X80137000Y-45339000D03*
X83947000Y-46990000D03*
X86868000Y-46355000D03*
X71501000Y-47244000D03*
X77470000Y-61595000D03*
X77470000Y-50800000D03*
X83820000Y-50800000D03*
X44831000Y-61595000D03*
X46355000Y-40513000D03*
X44577000Y-47752000D03*
X32385000Y-47752000D03*
X54610000Y-39751000D03*
X45339000Y-40513000D03*
X35306000Y-45212000D03*
X48006000Y-43180000D03*
X47752000Y-53721000D03*
X35306000Y-43942000D03*
X43053000Y-42926000D03*
X40640000Y-34798000D03*
X42672000Y-34290000D03*
D18*
X60960000Y-57912000D02*
X54102000Y-57912000D01*
X76835000Y-57912000D02*
X75692000Y-57912000D01*
X75692000Y-57912000D02*
X60960000Y-57912000D01*
D19*
X75692000Y-59055000D02*
X75692000Y-57912000D01*
D18*
X41783000Y-57912000D02*
X39116000Y-57912000D01*
X54102000Y-57912000D02*
X41783000Y-57912000D01*
D19*
X41783000Y-57912000D02*
X41853000Y-57982000D01*
X41853000Y-57982000D02*
X42926000Y-57982000D01*
D18*
X94234000Y-57912000D02*
X84582000Y-57912000D01*
X84582000Y-57912000D02*
X76835000Y-57912000D01*
D19*
X84582000Y-56769000D02*
X84582000Y-57912000D01*
X60960000Y-29464000D02*
X53721000Y-29464000D01*
X60960000Y-57912000D02*
X60960000Y-59055000D01*
X76835000Y-57912000D02*
X76660000Y-57737000D01*
X76660000Y-57737000D02*
X76660000Y-54290000D01*
X34036000Y-55880000D02*
X33250000Y-56666000D01*
X33250000Y-56666000D02*
X33250000Y-58039000D01*
X38481000Y-55880000D02*
X34036000Y-55880000D01*
X39116000Y-56515000D02*
X39116000Y-57912000D01*
X38481000Y-55880000D02*
X39116000Y-56515000D01*
X54102000Y-56769000D02*
X54102000Y-57912000D01*
X54054000Y-49210000D02*
X54054000Y-50625000D01*
X54054000Y-50625000D02*
X54102000Y-50673000D01*
X51054000Y-44323000D02*
X39878000Y-44323000D01*
X36370000Y-38420000D02*
X36370000Y-37620000D01*
X36370000Y-37620000D02*
X38430000Y-35560000D01*
X38430000Y-35560000D02*
X39116000Y-35560000D01*
D18*
X42037000Y-60452000D02*
X62230000Y-60452000D01*
D19*
X62230000Y-60452000D02*
X62230000Y-59182000D01*
D18*
X86614000Y-60452000D02*
X80137000Y-60452000D01*
X80137000Y-60452000D02*
X62230000Y-60452000D01*
D19*
X80137000Y-59436000D02*
X80137000Y-60452000D01*
D18*
X94234000Y-60452000D02*
X86614000Y-60452000D01*
D19*
X86614000Y-59436000D02*
X86614000Y-60452000D01*
X42037000Y-60452000D02*
X42856000Y-60452000D01*
D18*
X39116000Y-60452000D02*
X42037000Y-60452000D01*
D19*
X42856000Y-60452000D02*
X42926000Y-60382000D01*
X44704000Y-37973000D02*
X54610000Y-37973000D01*
X40132000Y-49022000D02*
X38100000Y-49022000D01*
D20*
X48133000Y-26670000D02*
X90424000Y-26670000D01*
X90424000Y-26670000D02*
X94234000Y-30480000D01*
X47117000Y-27686000D02*
X48133000Y-26670000D01*
X47117000Y-30480000D02*
X47117000Y-27686000D01*
X94996000Y-62230000D02*
X45720000Y-62230000D01*
X45720000Y-62230000D02*
X38354000Y-62230000D01*
X96774000Y-60452000D02*
X94996000Y-62230000D01*
X38354000Y-62230000D02*
X36576000Y-60452000D01*
X34290000Y-42672000D02*
X34671000Y-42291000D01*
X34671000Y-42291000D02*
X46863000Y-42291000D01*
X46863000Y-42291000D02*
X47117000Y-42545000D01*
X90610400Y-26219990D02*
X38296010Y-26219990D01*
X38296010Y-26219990D02*
X36576000Y-27940000D01*
X96774000Y-27940000D02*
X95053991Y-26219991D01*
X95053991Y-26219991D02*
X90610400Y-26219990D01*
X32512000Y-50419000D02*
X38100000Y-50419000D01*
X38100000Y-50419000D02*
X38227000Y-50292000D01*
X54054000Y-43373000D02*
X52898000Y-43373000D01*
X52898000Y-43373000D02*
X52070000Y-42545000D01*
D19*
X56365000Y-45570000D02*
X56068000Y-45273000D01*
X56068000Y-45273000D02*
X54054000Y-45273000D01*
X58270000Y-45570000D02*
X56365000Y-45570000D01*
X58227000Y-45527000D02*
X58270000Y-45570000D01*
X93423000Y-44323000D02*
X60917000Y-44323000D01*
X60917000Y-44323000D02*
X59670000Y-45570000D01*
X59670000Y-45570000D02*
X58270000Y-45570000D01*
X96070000Y-45570000D02*
X94670000Y-45570000D01*
X94670000Y-45570000D02*
X93423000Y-44323000D01*
D20*
X58270000Y-45570000D02*
X58670000Y-45570000D01*
X82931000Y-40132000D02*
X88773000Y-40132000D01*
D19*
X93423000Y-36703000D02*
X60917000Y-36703000D01*
X60917000Y-36703000D02*
X59670000Y-37950000D01*
X59670000Y-37950000D02*
X58270000Y-37950000D01*
X96070000Y-37950000D02*
X94670000Y-37950000D01*
X94670000Y-37950000D02*
X93423000Y-36703000D01*
X73152000Y-48514000D02*
X73152000Y-49403000D01*
X93423000Y-49403000D02*
X73152000Y-49403000D01*
X73152000Y-49403000D02*
X60917000Y-49403000D01*
X96470000Y-50650000D02*
X96070000Y-50650000D01*
X60917000Y-49403000D02*
X59670000Y-50650000D01*
X59670000Y-50650000D02*
X58270000Y-50650000D01*
X96070000Y-50650000D02*
X94670000Y-50650000D01*
X94670000Y-50650000D02*
X93423000Y-49403000D01*
X93296000Y-34036000D02*
X80010000Y-34036000D01*
X80010000Y-34036000D02*
X61044000Y-34036000D01*
X80010000Y-32766000D02*
X80010000Y-34036000D01*
X61044000Y-34036000D02*
X59670000Y-35410000D01*
X59670000Y-35410000D02*
X58270000Y-35410000D01*
X96070000Y-35410000D02*
X94670000Y-35410000D01*
X94670000Y-35410000D02*
X93296000Y-34036000D01*
D20*
X96070000Y-35410000D02*
X95670000Y-35410000D01*
X51054000Y-50160000D02*
X51054000Y-52070000D01*
D19*
X68130000Y-45570000D02*
X66730000Y-45570000D01*
X66730000Y-45570000D02*
X65564000Y-46736000D01*
X65564000Y-46736000D02*
X51054000Y-46736000D01*
X51054000Y-48260000D02*
X51054000Y-46736000D01*
X51054000Y-46736000D02*
X32896000Y-46736000D01*
X32896000Y-46736000D02*
X31730000Y-45570000D01*
X31730000Y-45570000D02*
X30330000Y-45570000D01*
D20*
X71760000Y-55240000D02*
X71120000Y-55880000D01*
X71120000Y-55880000D02*
X69580000Y-55880000D01*
X73660000Y-55240000D02*
X71760000Y-55240000D01*
D19*
X93423000Y-51943000D02*
X73660000Y-51943000D01*
X73660000Y-51943000D02*
X60917000Y-51943000D01*
X73660000Y-53340000D02*
X73660000Y-51943000D01*
X60917000Y-51943000D02*
X59670000Y-53190000D01*
X59670000Y-53190000D02*
X58270000Y-53190000D01*
X96070000Y-53190000D02*
X94670000Y-53190000D01*
X94670000Y-53190000D02*
X93423000Y-51943000D01*
D20*
X41534000Y-37470000D02*
X42053000Y-37989000D01*
X42053000Y-37989000D02*
X42053000Y-39370000D01*
X39370000Y-37470000D02*
X41534000Y-37470000D01*
D19*
X65564000Y-41656000D02*
X39370000Y-41656000D01*
X39370000Y-41656000D02*
X32896000Y-41656000D01*
X39370000Y-39370000D02*
X39370000Y-41656000D01*
X32896000Y-41656000D02*
X31730000Y-40490000D01*
X31730000Y-40490000D02*
X30330000Y-40490000D01*
X68130000Y-40490000D02*
X66730000Y-40490000D01*
X66730000Y-40490000D02*
X65564000Y-41656000D01*
D20*
X30250000Y-58989000D02*
X31450000Y-58989000D01*
X31450000Y-58989000D02*
X32115000Y-59654000D01*
X32115000Y-59654000D02*
X32115000Y-60960000D01*
D19*
X30250000Y-57089000D02*
X30250000Y-53270000D01*
X30250000Y-53270000D02*
X30330000Y-53190000D01*
X65310000Y-54610000D02*
X33150000Y-54610000D01*
X33150000Y-54610000D02*
X31730000Y-53190000D01*
X31730000Y-53190000D02*
X30330000Y-53190000D01*
X68130000Y-53190000D02*
X66730000Y-53190000D01*
X66730000Y-53190000D02*
X65310000Y-54610000D01*
D20*
X64389000Y-30480000D02*
X52451000Y-30480000D01*
X55880000Y-36703000D02*
X54356000Y-35179000D01*
X54356000Y-35179000D02*
X53594000Y-35179000D01*
X59690000Y-36703000D02*
X55880000Y-36703000D01*
X61132999Y-35260001D02*
X59690000Y-36703000D01*
X64770000Y-35560000D02*
X64470001Y-35260001D01*
X64470001Y-35260001D02*
X61132999Y-35260001D01*
X72263000Y-32385000D02*
X71628000Y-33020000D01*
X71628000Y-33020000D02*
X52451000Y-33020000D01*
X72263000Y-30861000D02*
X72263000Y-32385000D01*
X49054000Y-52070000D02*
X49054000Y-50959000D01*
X49054000Y-50959000D02*
X48895000Y-50800000D01*
X47244000Y-34290000D02*
X52451000Y-34290000D01*
X67580000Y-55880000D02*
X55245000Y-55880000D01*
X52070000Y-38989000D02*
X45720000Y-38989000D01*
X45720000Y-38989000D02*
X45339000Y-39370000D01*
X45339000Y-39370000D02*
X44053000Y-39370000D01*
X28829000Y-33020000D02*
X37797002Y-33020000D01*
X37797002Y-33020000D02*
X40337002Y-35560000D01*
X40337002Y-35560000D02*
X42672000Y-35560000D01*
X27940000Y-60452000D02*
X27940000Y-50800000D01*
X28448000Y-60960000D02*
X27940000Y-60452000D01*
X30115000Y-60960000D02*
X28448000Y-60960000D01*
X80518000Y-46228000D02*
X71501000Y-46228000D01*
X91694000Y-41910000D02*
X70500000Y-41910000D01*
X70500000Y-41910000D02*
X69380000Y-43030000D01*
X69380000Y-43030000D02*
X68130000Y-43030000D01*
X96070000Y-43030000D02*
X86637000Y-43030000D01*
X86637000Y-43030000D02*
X86614000Y-43053000D01*
X70942000Y-45339000D02*
X70612000Y-45669000D01*
X80137000Y-45339000D02*
X70942000Y-45339000D01*
X70612000Y-47625000D02*
X70127000Y-48110000D01*
X70127000Y-48110000D02*
X68130000Y-48110000D01*
X70612000Y-45669000D02*
X70612000Y-47625000D01*
X94208000Y-47498000D02*
X84455000Y-47498000D01*
X84455000Y-47498000D02*
X83947000Y-46990000D01*
X96070000Y-48110000D02*
X94820000Y-48110000D01*
X94820000Y-48110000D02*
X94208000Y-47498000D01*
X86868000Y-46355000D02*
X86568001Y-46055001D01*
X86568001Y-46055001D02*
X82849999Y-46055001D01*
X82849999Y-46055001D02*
X81661000Y-47244000D01*
X71501000Y-47244000D02*
X81661000Y-47244000D01*
X77470000Y-61595000D02*
X44831000Y-61595000D01*
X83820000Y-50800000D02*
X77470000Y-50800000D01*
X58270000Y-40490000D02*
X46378000Y-40490000D01*
X46378000Y-40490000D02*
X46355000Y-40513000D01*
X32385000Y-47752000D02*
X44577000Y-47752000D01*
X30330000Y-43030000D02*
X29930000Y-43030000D01*
X46101000Y-39751000D02*
X54610000Y-39751000D01*
X45339000Y-40513000D02*
X46101000Y-39751000D01*
X28321000Y-44831000D02*
X28829000Y-44323000D01*
X28829000Y-44323000D02*
X31877000Y-44323000D01*
X28321000Y-46501000D02*
X28321000Y-44831000D01*
X28321000Y-46501000D02*
X29930000Y-48110000D01*
X29930000Y-48110000D02*
X30330000Y-48110000D01*
X32766000Y-45212000D02*
X31877000Y-44323000D01*
X35306000Y-45212000D02*
X32766000Y-45212000D01*
X48006000Y-43180000D02*
X47625000Y-43561000D01*
X47625000Y-43561000D02*
X40337002Y-43561000D01*
X40337002Y-43561000D02*
X40274001Y-43497999D01*
X40274001Y-43497999D02*
X35750001Y-43497999D01*
X35750001Y-43497999D02*
X35306000Y-43942000D01*
X55753000Y-53721000D02*
X47752000Y-53721000D01*
X56388000Y-53086000D02*
X55753000Y-53721000D01*
X56388000Y-49592000D02*
X56388000Y-53086000D01*
X58270000Y-48110000D02*
X57870000Y-48110000D01*
X57870000Y-48110000D02*
X56388000Y-49592000D01*
X32385000Y-43180000D02*
X32385000Y-42418000D01*
X32385000Y-42418000D02*
X31750000Y-41783000D01*
X33237998Y-44032998D02*
X32385000Y-43180000D01*
X34290000Y-44032998D02*
X33237998Y-44032998D01*
X43053000Y-42926000D02*
X35396998Y-42926000D01*
X35396998Y-42926000D02*
X34290000Y-44032998D01*
X31750000Y-41783000D02*
X28829000Y-41783000D01*
X28829000Y-41783000D02*
X27686000Y-42926000D01*
X27686000Y-42926000D02*
X27686000Y-48406000D01*
X27686000Y-48406000D02*
X29930000Y-50650000D01*
X29930000Y-50650000D02*
X30330000Y-50650000D01*
X42672000Y-34290000D02*
X41148000Y-34290000D01*
X41148000Y-34290000D02*
X40640000Y-34798000D01*
M02*
